ISO-10303-21;
HEADER;
FILE_DESCRIPTION(('FreeCAD Model'),'2;1');
FILE_NAME('Open CASCADE Shape Model','2026-08-27T21:53:20',('FreeCAD'),(
    'FreeCAD'),'Open CASCADE STEP processor 7.8','FreeCAD','Unknown');
FILE_SCHEMA(('AUTOMOTIVE_DESIGN { 1 0 10303 214 1 1 1 1 }'));
ENDSEC;
DATA;
#1 = APPLICATION_PROTOCOL_DEFINITION('international standard',
  'automotive_design',2000,#2);
#2 = APPLICATION_CONTEXT(
  'core data for automotive mechanical design processes');
#3 = SHAPE_DEFINITION_REPRESENTATION(#4,#10);
#4 = PRODUCT_DEFINITION_SHAPE('','',#5);
#5 = PRODUCT_DEFINITION('design','',#6,#9);
#6 = PRODUCT_DEFINITION_FORMATION('','',#7);
#7 = PRODUCT('Open CASCADE STEP translator 7.8 1',
  'Open CASCADE STEP translator 7.8 1','',(#8));
#8 = PRODUCT_CONTEXT('',#2,'mechanical');
#9 = PRODUCT_DEFINITION_CONTEXT('part definition',#2,'design');
#10 = ADVANCED_BREP_SHAPE_REPRESENTATION('',(#11,#15),#836);
#11 = AXIS2_PLACEMENT_3D('',#12,#13,#14);
#12 = CARTESIAN_POINT('',(0.,0.,0.));
#13 = DIRECTION('',(0.,0.,1.));
#14 = DIRECTION('',(1.,0.,-0.));
#15 = MANIFOLD_SOLID_BREP('',#16);
#16 = CLOSED_SHELL('',(#17,#656,#688,#725,#768,#793,#814));
#17 = ADVANCED_FACE('',(#18),#620,.T.);
#18 = FACE_BOUND('',#19,.T.);
#19 = EDGE_LOOP('',(#20,#65,#75,#76,#86,#133,#252,#413,#441,#560));
#20 = ORIENTED_EDGE('',*,*,#21,.F.);
#21 = EDGE_CURVE('',#22,#24,#26,.T.);
#22 = VERTEX_POINT('',#23);
#23 = CARTESIAN_POINT('',(7.109534631199,-2.081720702607,1.778870552505)
  );
#24 = VERTEX_POINT('',#25);
#25 = CARTESIAN_POINT('',(1.556589546105,6.508308611374,1.264893699984)
  );
#26 = B_SPLINE_CURVE_WITH_KNOTS('',5,(#27,#28,#29,#30,#31,#32,#33,#34,
    #35,#36,#37,#38,#39,#40,#41,#42,#43,#44,#45,#46,#47,#48,#49,#50,#51,
    #52,#53,#54,#55,#56,#57,#58,#59,#60,#61,#62,#63,#64),.UNSPECIFIED.,
  .F.,.F.,(6,4,4,4,4,4,4,4,4,6),(0.,0.151800173764,0.259367205301,
    0.337382215438,0.43573163656,0.532131388335,0.64877831972,
    0.770414130962,0.865380834823,1.),.UNSPECIFIED.);
#27 = CARTESIAN_POINT('',(7.109534631199,-2.081720702607,1.778870552505)
  );
#28 = CARTESIAN_POINT('',(7.103536173288,-1.778149323517,1.925461425116)
  );
#29 = CARTESIAN_POINT('',(7.080053146984,-1.468970557543,2.059713910766)
  );
#30 = CARTESIAN_POINT('',(7.039871515235,-1.156145830689,2.181327960333)
  );
#31 = CARTESIAN_POINT('',(6.983888032629,-0.841367875086,2.290233820005)
  );
#32 = CARTESIAN_POINT('',(6.862669153839,-0.302586275704,2.454645991245)
  );
#33 = CARTESIAN_POINT('',(6.804884474651,-7.886461076648E-02,
    2.516463823588));
#34 = CARTESIAN_POINT('',(6.739888655869,0.144628648335,2.571922422934)
  );
#35 = CARTESIAN_POINT('',(6.667975219589,0.367441023556,2.621049747853)
  );
#36 = CARTESIAN_POINT('',(6.532444724842,0.749975495116,2.694944132194)
  );
#37 = CARTESIAN_POINT('',(6.471976522309,0.91021212087,2.722695445556));
#38 = CARTESIAN_POINT('',(6.408119829734,1.069719567775,2.747147651038)
  );
#39 = CARTESIAN_POINT('',(6.340976201636,1.228349695955,2.768314627492)
  );
#40 = CARTESIAN_POINT('',(6.181978431318,1.584655818668,2.808771580608)
  );
#41 = CARTESIAN_POINT('',(6.088245465277,1.781730884866,2.826133983943)
  );
#42 = CARTESIAN_POINT('',(5.989639737158,1.976906585317,2.83832676866));
#43 = CARTESIAN_POINT('',(5.886349586914,2.169911287704,2.845377225781)
  );
#44 = CARTESIAN_POINT('',(5.672900107375,2.54727576275,2.849206791598));
#45 = CARTESIAN_POINT('',(5.562918144229,2.731729868342,2.846186670352)
  );
#46 = CARTESIAN_POINT('',(5.448781292804,2.913597095503,2.838274871091)
  );
#47 = CARTESIAN_POINT('',(5.330657876064,3.092630450247,2.825493668784)
  );
#48 = CARTESIAN_POINT('',(5.061157316426,3.481492867951,2.786530546655)
  );
#49 = CARTESIAN_POINT('',(4.90800811579,3.68989018945,2.758098109085));
#50 = CARTESIAN_POINT('',(4.749559039263,3.893340523085,2.722602350424)
  );
#51 = CARTESIAN_POINT('',(4.586108534636,4.091394914374,2.680077256799)
  );
#52 = CARTESIAN_POINT('',(4.242623172498,4.484011176057,2.578918338202)
  );
#53 = CARTESIAN_POINT('',(4.062180956624,4.678058950177,2.5196746824));
#54 = CARTESIAN_POINT('',(3.876979115804,4.865213535062,2.452862475865)
  );
#55 = CARTESIAN_POINT('',(3.687389786331,5.04492127812,2.378527171784));
#56 = CARTESIAN_POINT('',(3.342678872694,5.350633436979,2.232854843041)
  );
#57 = CARTESIAN_POINT('',(3.189116010549,5.479772859148,2.164435214431)
  );
#58 = CARTESIAN_POINT('',(3.033315709537,5.603736789683,2.091490161104)
  );
#59 = CARTESIAN_POINT('',(2.875489358549,5.722231508499,2.01405589117));
#60 = CARTESIAN_POINT('',(2.489599631121,5.994730164607,1.816114912212)
  );
#61 = CARTESIAN_POINT('',(2.259729947285,6.142899624547,1.69112665642));
#62 = CARTESIAN_POINT('',(2.026915176348,6.278587090904,1.557346883591)
  );
#63 = CARTESIAN_POINT('',(1.791937313369,6.400842475492,1.414977777218)
  );
#64 = CARTESIAN_POINT('',(1.555718659334,6.508706363401,1.26433836593));
#65 = ORIENTED_EDGE('',*,*,#66,.F.);
#66 = EDGE_CURVE('',#67,#22,#69,.T.);
#67 = VERTEX_POINT('',#68);
#68 = CARTESIAN_POINT('',(-1.583972556027,-1.5667278264E-16,
    -5.911466056889));
#69 = ( BOUNDED_CURVE() B_SPLINE_CURVE(2,(#70,#71,#72,#73,#74),
.UNSPECIFIED.,.F.,.F.) B_SPLINE_CURVE_WITH_KNOTS((3,2,3),(4.712388980385
,6.28318530718,7.853981633974),.PIECEWISE_BEZIER_KNOTS.) CURVE() 
GEOMETRIC_REPRESENTATION_ITEM() RATIONAL_B_SPLINE_CURVE((1.,
0.707106781187,1.,0.707106781187,1.)) REPRESENTATION_ITEM('') );
#70 = CARTESIAN_POINT('',(-1.583972556027,4.700183479199E-16,
    -5.911466056889));
#71 = CARTESIAN_POINT('',(6.022449869151,-2.558660713425,-7.949600803006
    ));
#72 = CARTESIAN_POINT('',(7.606422425178,-2.558660713425,-2.038134746116
    ));
#73 = CARTESIAN_POINT('',(9.190394981205,-2.558660713425,3.873331310773)
  );
#74 = CARTESIAN_POINT('',(1.583972556027,-7.833639131999E-16,
    5.911466056889));
#75 = ORIENTED_EDGE('',*,*,#66,.T.);
#76 = ORIENTED_EDGE('',*,*,#77,.F.);
#77 = EDGE_CURVE('',#78,#22,#80,.T.);
#78 = VERTEX_POINT('',#79);
#79 = CARTESIAN_POINT('',(7.086297100314,-2.758591017701,1.420311102891)
  );
#80 = B_SPLINE_CURVE_WITH_KNOTS('',4,(#81,#82,#83,#84,#85),
  .UNSPECIFIED.,.F.,.F.,(5,5),(0.,1.),.PIECEWISE_BEZIER_KNOTS.);
#81 = CARTESIAN_POINT('',(7.085277272258,-2.769567297423,1.413939766025)
  );
#82 = CARTESIAN_POINT('',(7.101059798949,-2.601513726576,1.5116346205));
#83 = CARTESIAN_POINT('',(7.110245646149,-2.430476971359,1.605108175139)
  );
#84 = CARTESIAN_POINT('',(7.112998750958,-2.257037941029,1.694211949008)
  );
#85 = CARTESIAN_POINT('',(7.109534631199,-2.081720702607,1.778870552505)
  );
#86 = ORIENTED_EDGE('',*,*,#87,.T.);
#87 = EDGE_CURVE('',#78,#88,#90,.T.);
#88 = VERTEX_POINT('',#89);
#89 = CARTESIAN_POINT('',(1.536592733938,-4.124678546862,4.699206460249)
  );
#90 = B_SPLINE_CURVE_WITH_KNOTS('',5,(#91,#92,#93,#94,#95,#96,#97,#98,
    #99,#100,#101,#102,#103,#104,#105,#106,#107,#108,#109,#110,#111,#112
    ,#113,#114,#115,#116,#117,#118,#119,#120,#121,#122,#123,#124,#125,
    #126,#127,#128,#129,#130,#131,#132),.UNSPECIFIED.,.F.,.F.,(6,4,4,4,4
    ,4,4,4,4,4,6),(0.,0.102212988922,0.200565586663,0.298343465457,
    0.396403478154,0.487722756285,0.580733701375,0.677390094935,
    0.776535001314,0.885280992168,1.),.UNSPECIFIED.);
#91 = CARTESIAN_POINT('',(7.086297100314,-2.758591017701,1.420311102891)
  );
#92 = CARTESIAN_POINT('',(7.02093635982,-2.759634037937,1.544688201699)
  );
#93 = CARTESIAN_POINT('',(6.951720543558,-2.762354622749,1.666144704681)
  );
#94 = CARTESIAN_POINT('',(6.878880652864,-2.766894481575,1.78463134639)
  );
#95 = CARTESIAN_POINT('',(6.802628174914,-2.77335860302,1.900107784118)
  );
#96 = CARTESIAN_POINT('',(6.646683538841,-2.789952514938,2.120730961519)
  );
#97 = CARTESIAN_POINT('',(6.567230193877,-2.799934521006,2.226102974957)
  );
#98 = CARTESIAN_POINT('',(6.484966218723,-2.811822153843,2.328629919944)
  );
#99 = CARTESIAN_POINT('',(6.400047067101,-2.825643550301,2.428290082517)
  );
#100 = CARTESIAN_POINT('',(6.225688804095,-2.857052618647,2.621281901747
    ));
#101 = CARTESIAN_POINT('',(6.136279001545,-2.874617798302,2.714647364646
    ));
#102 = CARTESIAN_POINT('',(6.044520570532,-2.894084751199,2.805150385331
    ));
#103 = CARTESIAN_POINT('',(5.950535936323,-2.915416304944,2.892785125284
    ));
#104 = CARTESIAN_POINT('',(5.758051654824,-2.961736437782,3.062568801326
    ));
#105 = CARTESIAN_POINT('',(5.659539686263,-2.986735699975,3.144701453114
    ));
#106 = CARTESIAN_POINT('',(5.559004840349,-3.013470159824,3.223955821422
    ));
#107 = CARTESIAN_POINT('',(5.456540015272,-3.041839445689,3.300346396798
    ));
#108 = CARTESIAN_POINT('',(5.255076267836,-3.09953388199,3.442395449433)
  );
#109 = CARTESIAN_POINT('',(5.156323280868,-3.128659752334,3.508430776412
    ));
#110 = CARTESIAN_POINT('',(5.056026149797,-3.158985843368,3.572026024298
    ));
#111 = CARTESIAN_POINT('',(4.954236179001,-3.190389053687,3.633211200606
    ));
#112 = CARTESIAN_POINT('',(4.745838426864,-3.255666814602,3.751928785073
    ));
#113 = CARTESIAN_POINT('',(4.639176538276,-3.289576900443,3.809372428483
    ));
#114 = CARTESIAN_POINT('',(4.531050041211,-3.324309695699,3.864397520382
    ));
#115 = CARTESIAN_POINT('',(4.421491198162,-3.35970250525,3.917053965378)
  );
#116 = CARTESIAN_POINT('',(4.195204321447,-3.432861416695,4.019719728805
    ));
#117 = CARTESIAN_POINT('',(4.078363962563,-3.470666394608,4.069544234654
    ));
#118 = CARTESIAN_POINT('',(3.960026688803,-3.508797099341,4.11693920974)
  );
#119 = CARTESIAN_POINT('',(3.840209430396,-3.547043551989,4.161978540941
    ));
#120 = CARTESIAN_POINT('',(3.594516061605,-3.624313867313,4.248609543416
    ));
#121 = CARTESIAN_POINT('',(3.468563896427,-3.66333223238,4.290082416556)
  );
#122 = CARTESIAN_POINT('',(3.341080123972,-3.702007394418,4.329250008665
    ));
#123 = CARTESIAN_POINT('',(3.212075323862,-3.740093872126,4.36620710383)
  );
#124 = CARTESIAN_POINT('',(2.938409561819,-3.818192723698,4.439279012666
    ));
#125 = CARTESIAN_POINT('',(2.793443219358,-3.85803415878,4.474965432489)
  );
#126 = CARTESIAN_POINT('',(2.646678639152,-3.896531912643,4.508249716274
    ));
#127 = CARTESIAN_POINT('',(2.498141256768,-3.933342519283,4.539275250023
    ));
#128 = CARTESIAN_POINT('',(2.18934677223,-4.004798117483,4.598706564263)
  );
#129 = CARTESIAN_POINT('',(2.028895720386,-4.039212724784,4.626874541947
    ));
#130 = CARTESIAN_POINT('',(1.86656384738,-4.07094758957,4.652882168059)
  );
#131 = CARTESIAN_POINT('',(1.702426392181,-4.099579504076,4.676922894362
    ));
#132 = CARTESIAN_POINT('',(1.536592733938,-4.124678546862,4.699206460249
    ));
#133 = ORIENTED_EDGE('',*,*,#134,.T.);
#134 = EDGE_CURVE('',#88,#135,#137,.T.);
#135 = VERTEX_POINT('',#136);
#136 = CARTESIAN_POINT('',(1.194057899539,-1.075350614703,5.927226558058
    ));
#137 = B_SPLINE_CURVE_WITH_KNOTS('',8,(#138,#139,#140,#141,#142,#143,
    #144,#145,#146,#147,#148,#149,#150,#151,#152,#153,#154,#155,#156,
    #157,#158,#159,#160,#161,#162,#163,#164,#165,#166,#167,#168,#169,
    #170,#171,#172,#173,#174,#175,#176,#177,#178,#179,#180,#181,#182,
    #183,#184,#185,#186,#187,#188,#189,#190,#191,#192,#193,#194,#195,
    #196,#197,#198,#199,#200,#201,#202,#203,#204,#205,#206,#207,#208,
    #209,#210,#211,#212,#213,#214,#215,#216,#217,#218,#219,#220,#221,
    #222,#223,#224,#225,#226,#227,#228,#229,#230,#231,#232,#233,#234,
    #235,#236,#237,#238,#239,#240,#241,#242,#243,#244,#245,#246,#247,
    #248,#249,#250,#251),.UNSPECIFIED.,.F.,.F.,(9,7,7,7,7,7,7,7,7,7,7,7,
    7,7,7,7,9),(0.,0.109355477883,0.208472467255,0.347431407877,
    0.376872814943,0.435056908872,0.448387916241,0.454584961943,
    0.45769938864,0.461046087579,0.484158401314,0.524315193303,
    0.582855316794,0.652271828127,0.778362205278,0.907451371742,1.),
  .UNSPECIFIED.);
#138 = CARTESIAN_POINT('',(1.490875714905,-4.382915788785,4.530495739419
    ));
#139 = CARTESIAN_POINT('',(1.513258821011,-4.2755005937,4.603587675465)
  );
#140 = CARTESIAN_POINT('',(1.532676053604,-4.166316121866,4.674995728079
    ));
#141 = CARTESIAN_POINT('',(1.549145971837,-4.055493210374,4.744670551413
    ));
#142 = CARTESIAN_POINT('',(1.562693134988,-3.943160277735,4.81256920517)
  );
#143 = CARTESIAN_POINT('',(1.573347130607,-3.829442839418,4.878654555186
    ));
#144 = CARTESIAN_POINT('',(1.581141714911,-3.714463076994,4.942894744418
    ));
#145 = CARTESIAN_POINT('',(1.586114065424,-3.598339460905,5.005262734323
    ));
#146 = CARTESIAN_POINT('',(1.590289178361,-3.37500193332,5.120547251982)
  );
#147 = CARTESIAN_POINT('',(1.589988515094,-3.267972828974,5.173801422128
    ));
#148 = CARTESIAN_POINT('',(1.587432010125,-3.160183015379,5.225482330678
    ));
#149 = CARTESIAN_POINT('',(1.582651200418,-3.051714882777,5.275576094322
    ));
#150 = CARTESIAN_POINT('',(1.575679128653,-2.942649262028,5.324070913431
    ));
#151 = CARTESIAN_POINT('',(1.566550206661,-2.833065437428,5.370956947377
    ));
#152 = CARTESIAN_POINT('',(1.555300119455,-2.723041220416,5.416226194568
    ));
#153 = CARTESIAN_POINT('',(1.523271425912,-2.457892345648,5.521062969693
    ));
#154 = CARTESIAN_POINT('',(1.500499256777,-2.302572424521,5.579001653287
    ));
#155 = CARTESIAN_POINT('',(1.473745751542,-2.146742215552,5.633747542597
    ));
#156 = CARTESIAN_POINT('',(1.443099693012,-1.990551279183,5.685302745569
    ));
#157 = CARTESIAN_POINT('',(1.408672410161,-1.834261865758,5.73363255075)
  );
#158 = CARTESIAN_POINT('',(1.370620477361,-1.6782562409,5.77868142271));
#159 = CARTESIAN_POINT('',(1.329177803791,-1.523063388624,5.820387440736
    ));
#160 = CARTESIAN_POINT('',(1.275293465908,-1.336878491743,5.866814683704
    ));
#161 = CARTESIAN_POINT('',(1.265739673243,-1.304406106043,5.874777049403
    ));
#162 = CARTESIAN_POINT('',(1.256057090868,-1.272021734005,5.882583873111
    ));
#163 = CARTESIAN_POINT('',(1.246251045007,-1.239737473996,5.89023371829)
  );
#164 = CARTESIAN_POINT('',(1.236327848046,-1.207567750512,5.897724839377
    ));
#165 = CARTESIAN_POINT('',(1.226294870868,-1.175529264217,5.905055269412
    ));
#166 = CARTESIAN_POINT('',(1.216160615187,-1.143640941988,5.912222907659
    ));
#167 = CARTESIAN_POINT('',(1.185725812474,-1.049242504052,5.933064814318
    ));
#168 = CARTESIAN_POINT('',(1.165149000687,-0.987198519597,5.946266764809
    ));
#169 = CARTESIAN_POINT('',(1.14428862213,-0.92598673169,5.958807040999)
  );
#170 = CARTESIAN_POINT('',(1.12325268407,-0.865848570471,5.970658464857)
  );
#171 = CARTESIAN_POINT('',(1.102176227846,-0.807067869009,5.981796069077
    ));
#172 = CARTESIAN_POINT('',(1.081211293489,-0.749938659807,5.992204507935
    ));
#173 = CARTESIAN_POINT('',(1.060511280459,-0.694727763057,6.001883219167
    ));
#174 = CARTESIAN_POINT('',(1.035567754467,-0.629495006503,6.012897870275
    ));
#175 = CARTESIAN_POINT('',(1.030939295637,-0.617447066633,6.014913477284
    ));
#176 = CARTESIAN_POINT('',(1.026333634716,-0.605513408758,6.016891686862
    ));
#177 = CARTESIAN_POINT('',(1.021752226993,-0.593696003748,6.018832773894
    ));
#178 = CARTESIAN_POINT('',(1.017196406207,-0.581996497737,6.020737070363
    ));
#179 = CARTESIAN_POINT('',(1.012667384542,-0.570416212123,6.022604965354
    ));
#180 = CARTESIAN_POINT('',(1.008166252633,-0.558956143568,6.024436905053
    ));
#181 = CARTESIAN_POINT('',(1.001615000843,-0.542345838415,6.027068507153
    ));
#182 = CARTESIAN_POINT('',(0.999542254351,-0.537100829298,6.027895960594
    ));
#183 = CARTESIAN_POINT('',(0.997475835149,-0.531882000554,6.028715803441
    ));
#184 = CARTESIAN_POINT('',(0.995415831622,-0.526689400215,6.029528088225
    ));
#185 = CARTESIAN_POINT('',(0.993362325482,-0.521523060436,6.03033286963)
  );
#186 = CARTESIAN_POINT('',(0.99131539176,-0.5163829975,6.031130204495));
#187 = CARTESIAN_POINT('',(0.989275098815,-0.511269211816,6.031920151816
    ));
#188 = CARTESIAN_POINT('',(0.986219494158,-0.503624869554,6.03309609169)
  );
#189 = CARTESIAN_POINT('',(0.985242534963,-0.501183158522,6.033470875725
    ));
#190 = CARTESIAN_POINT('',(0.984278744948,-0.498776431656,6.03383957252)
  );
#191 = CARTESIAN_POINT('',(0.983309471596,-0.496358059943,6.034209343031
    ));
#192 = CARTESIAN_POINT('',(0.982329102961,-0.493914179414,6.034582259152
    ));
#193 = CARTESIAN_POINT('',(0.981344874955,-0.491462962026,6.03495550139)
  );
#194 = CARTESIAN_POINT('',(0.980376678639,-0.489053886557,6.035321556519
    ));
#195 = CARTESIAN_POINT('',(0.978468457368,-0.48430957837,6.036041142516)
  );
#196 = CARTESIAN_POINT('',(0.977500773475,-0.481905884122,6.036404950806
    ));
#197 = CARTESIAN_POINT('',(0.976552280738,-0.479551926768,6.036760510677
    ));
#198 = CARTESIAN_POINT('',(0.975617382612,-0.477233673894,6.037109991587
    ));
#199 = CARTESIAN_POINT('',(0.974688501141,-0.474932230404,6.037456278381
    ));
#200 = CARTESIAN_POINT('',(0.973756327472,-0.472624500595,6.037802857208
    ));
#201 = CARTESIAN_POINT('',(0.97280824286,-0.47027934255,6.038154370871)
  );
#202 = CARTESIAN_POINT('',(0.965034011172,-0.45106674506,6.041027987479)
  );
#203 = CARTESIAN_POINT('',(0.958231717666,-0.434358339423,6.043491231317
    ));
#204 = CARTESIAN_POINT('',(0.951414879676,-0.417714682939,6.045909504687
    ));
#205 = CARTESIAN_POINT('',(0.944580012779,-0.401126004035,6.048284675774
    ));
#206 = CARTESIAN_POINT('',(0.937723298072,-0.384582074563,6.050618551388
    ));
#207 = CARTESIAN_POINT('',(0.930840582174,-0.368072209803,6.052912876953
    ));
#208 = CARTESIAN_POINT('',(0.923927377223,-0.351585268458,6.055169336516
    ));
#209 = CARTESIAN_POINT('',(0.904906070217,-0.306483878364,6.061247096483
    ));
#210 = CARTESIAN_POINT('',(0.892727323591,-0.277893899348,6.064994982027
    ));
#211 = CARTESIAN_POINT('',(0.880416849249,-0.24927784237,6.068641827003)
  );
#212 = CARTESIAN_POINT('',(0.867946592503,-0.220572064334,6.072195156887
    ));
#213 = CARTESIAN_POINT('',(0.855286721813,-0.191712370236,6.07566123431)
  );
#214 = CARTESIAN_POINT('',(0.842406134867,-0.162635231113,6.079044888361
    ));
#215 = CARTESIAN_POINT('',(0.829272964662,-0.133279001985,6.082349343895
    ));
#216 = CARTESIAN_POINT('',(0.796294651113,-6.029775869125E-02,
    6.090279908234));
#217 = CARTESIAN_POINT('',(0.776124692109,-1.628288911166E-02,
    6.094819646134));
#218 = CARTESIAN_POINT('',(0.755255384684,2.861895596183E-02,
    6.099197218281));
#219 = CARTESIAN_POINT('',(0.733602649485,7.454068597645E-02,
    6.103406264544));
#220 = CARTESIAN_POINT('',(0.711095625503,0.121572941586,6.107430737817)
  );
#221 = CARTESIAN_POINT('',(0.687690053724,0.16974128849,6.111245091519)
  );
#222 = CARTESIAN_POINT('',(0.663380419106,0.218990404194,6.114816888235)
  );
#223 = CARTESIAN_POINT('',(0.608349302923,0.328714979117,6.122020831083)
  );
#224 = CARTESIAN_POINT('',(0.577266811782,0.389593830222,6.125542029694)
  );
#225 = CARTESIAN_POINT('',(0.545006458023,0.451629186508,6.128621421947)
  );
#226 = CARTESIAN_POINT('',(0.511644288825,0.514587017458,6.131207851372)
  );
#227 = CARTESIAN_POINT('',(0.477273219772,0.578223506158,6.133259876766)
  );
#228 = CARTESIAN_POINT('',(0.441988102266,0.642314458928,6.134747545016)
  );
#229 = CARTESIAN_POINT('',(0.405872652709,0.706675163582,6.135651000557)
  );
#230 = CARTESIAN_POINT('',(0.302012322111,0.888290204094,6.13651283607)
  );
#231 = CARTESIAN_POINT('',(0.232541180336,1.005786610772,6.135097265802)
  );
#232 = CARTESIAN_POINT('',(0.160832887944,1.123064758707,6.131635136895)
  );
#233 = CARTESIAN_POINT('',(8.710825071305E-02,1.239684566223,
    6.126097631927));
#234 = CARTESIAN_POINT('',(1.153378971229E-02,1.355356228464,
    6.118484059943));
#235 = CARTESIAN_POINT('',(-6.577517166546E-02,1.469896857942,
    6.108802850189));
#236 = CARTESIAN_POINT('',(-0.144767432643,1.583226466272,6.097058349646
    ));
#237 = CARTESIAN_POINT('',(-0.30807481789,1.810136660368,6.069085102444)
  );
#238 = CARTESIAN_POINT('',(-0.392400485743,1.923559963769,6.052768583592
    ));
#239 = CARTESIAN_POINT('',(-0.478378272491,2.035521661466,6.034290484957
    ));
#240 = CARTESIAN_POINT('',(-0.56595106486,2.145934361032,6.013656571867)
  );
#241 = CARTESIAN_POINT('',(-0.655064759525,2.254717442952,5.990873389421
    ));
#242 = CARTESIAN_POINT('',(-0.745668455722,2.36179575358,5.965947442153)
  );
#243 = CARTESIAN_POINT('',(-0.837714836457,2.467098742111,5.938884432376
    ));
#244 = CARTESIAN_POINT('',(-0.998155148936,2.644734095193,5.888756722518
    ));
#245 = CARTESIAN_POINT('',(-1.065866692613,2.717959279239,5.866729397588
    ));
#246 = CARTESIAN_POINT('',(-1.134277525093,2.790208622345,5.843608550319
    ));
#247 = CARTESIAN_POINT('',(-1.20336975735,2.861455556658,5.819396389136)
  );
#248 = CARTESIAN_POINT('',(-1.273125286314,2.931673303592,5.794095202466
    ));
#249 = CARTESIAN_POINT('',(-1.343525794392,3.000834866832,5.767707355651
    ));
#250 = CARTESIAN_POINT('',(-1.414552748981,3.068913025331,5.740235287873
    ));
#251 = CARTESIAN_POINT('',(-1.486187401992,3.135880326314,5.711681509066
    ));
#252 = ORIENTED_EDGE('',*,*,#253,.F.);
#253 = EDGE_CURVE('',#254,#135,#256,.T.);
#254 = VERTEX_POINT('',#255);
#255 = CARTESIAN_POINT('',(1.435522204797,0.203928000771,5.947778917068)
  );
#256 = B_SPLINE_CURVE_WITH_KNOTS('',8,(#257,#258,#259,#260,#261,#262,
    #263,#264,#265,#266,#267,#268,#269,#270,#271,#272,#273,#274,#275,
    #276,#277,#278,#279,#280,#281,#282,#283,#284,#285,#286,#287,#288,
    #289,#290,#291,#292,#293,#294,#295,#296,#297,#298,#299,#300,#301,
    #302,#303,#304,#305,#306,#307,#308,#309,#310,#311,#312,#313,#314,
    #315,#316,#317,#318,#319,#320,#321,#322,#323,#324,#325,#326,#327,
    #328,#329,#330,#331,#332,#333,#334,#335,#336,#337,#338,#339,#340,
    #341,#342,#343,#344,#345,#346,#347,#348,#349,#350,#351,#352,#353,
    #354,#355,#356,#357,#358,#359,#360,#361,#362,#363,#364,#365,#366,
    #367,#368,#369,#370,#371,#372,#373,#374,#375,#376,#377,#378,#379,
    #380,#381,#382,#383,#384,#385,#386,#387,#388,#389,#390,#391,#392,
    #393,#394,#395,#396,#397,#398,#399,#400,#401,#402,#403,#404,#405,
    #406,#407,#408,#409,#410,#411,#412),.UNSPECIFIED.,.F.,.F.,(9,7,7,7,7
    ,7,7,7,7,7,7,7,7,7,7,7,7,7,7,7,7,7,9),(0.,2.219093046624E-02,
    4.398933374399E-02,6.059772233956E-02,9.328221417739E-02,
    0.139264474128,0.204428281144,0.27982059791,0.336512444246,
    0.367690589033,0.422343162121,0.458748808563,0.52768439657,
    0.579405589504,0.615094811943,0.631738671243,0.650016964385,
    0.677206151991,0.695450871281,0.717710682204,0.815125716911,
    0.925321527068,1.),.UNSPECIFIED.);
#257 = CARTESIAN_POINT('',(1.435522204797,0.203928000771,5.947778917068)
  );
#258 = CARTESIAN_POINT('',(1.440139514125,0.197994862475,5.946746781484)
  );
#259 = CARTESIAN_POINT('',(1.444700427938,0.191977280433,5.945724212932)
  );
#260 = CARTESIAN_POINT('',(1.449203878019,0.185873401975,5.944711377886)
  );
#261 = CARTESIAN_POINT('',(1.45364250216,0.179689118762,5.943709838682)
  );
#262 = CARTESIAN_POINT('',(1.458003437772,0.173439116463,5.94272241428)
  );
#263 = CARTESIAN_POINT('',(1.462269284074,0.167147614639,5.941753004202)
  );
#264 = CARTESIAN_POINT('',(1.466419232832,0.16084879684,5.940806375636)
  );
#265 = CARTESIAN_POINT('',(1.474370535231,0.148435818258,5.938985701076)
  );
#266 = CARTESIAN_POINT('',(1.478184178597,0.142308892129,5.938108970242)
  );
#267 = CARTESIAN_POINT('',(1.481832092999,0.136273728579,5.937266795762)
  );
#268 = CARTESIAN_POINT('',(1.48528422021,0.130394929528,5.936466382941)
  );
#269 = CARTESIAN_POINT('',(1.488520742981,0.124728527479,5.935712749358)
  );
#270 = CARTESIAN_POINT('',(1.491531741933,0.119318808032,5.935008734015)
  );
#271 = CARTESIAN_POINT('',(1.494315414908,0.114197550192,5.93435533409)
  );
#272 = CARTESIAN_POINT('',(1.498824945748,0.105719496978,5.93329296073)
  );
#273 = CARTESIAN_POINT('',(1.500648124077,0.102226719407,5.932862061008)
  );
#274 = CARTESIAN_POINT('',(1.502349899008,9.890898535234E-02,
    5.932458619223));
#275 = CARTESIAN_POINT('',(1.503937679522,9.576284804764E-02,
    5.932081107598));
#276 = CARTESIAN_POINT('',(1.505420056718,9.278112477659E-02,
    5.931727690396));
#277 = CARTESIAN_POINT('',(1.506806082211,8.995424126535E-02,
    5.931396392821));
#278 = CARTESIAN_POINT('',(1.508104546525,8.727157607832E-02,
    5.931085269923));
#279 = CARTESIAN_POINT('',(1.511721633271,7.970695518753E-02,
    5.930216565024));
#280 = CARTESIAN_POINT('',(1.513807865284,7.521729503049E-02,
    5.929712727824));
#281 = CARTESIAN_POINT('',(1.515647995081,7.11636889145E-02,
    5.929266236138));
#282 = CARTESIAN_POINT('',(1.51728843452,6.747732877863E-02,
    5.928866560686));
#283 = CARTESIAN_POINT('',(1.518763333392,6.41038919979E-02,
    5.928505878686));
#284 = CARTESIAN_POINT('',(1.520099515957,6.099873647768E-02,
    5.928178003302));
#285 = CARTESIAN_POINT('',(1.521318986415,5.812413297303E-02,
    5.927877834512));
#286 = CARTESIAN_POINT('',(1.524014707494,5.168436482249E-02,
    5.927212331137));
#287 = CARTESIAN_POINT('',(1.525391748289,4.831908160357E-02,
    5.926870634256));
#288 = CARTESIAN_POINT('',(1.526616927033,4.526918274272E-02,
    5.926565326151));
#289 = CARTESIAN_POINT('',(1.527720454994,4.247825611777E-02,
    5.92628930799));
#290 = CARTESIAN_POINT('',(1.528723194352,3.990571433541E-02,
    5.926037642612));
#291 = CARTESIAN_POINT('',(1.529641238341,3.75195642081E-02,
    5.925806506197));
#292 = CARTESIAN_POINT('',(1.530487830545,3.529321109048E-02,
    5.925592745657));
#293 = CARTESIAN_POINT('',(1.532384805616,3.024883201562E-02,
    5.925112446061));
#294 = CARTESIAN_POINT('',(1.533372995921,2.757162677066E-02,
    5.924861070404));
#295 = CARTESIAN_POINT('',(1.534265446249,2.511604452828E-02,
    5.924633146928));
#296 = CARTESIAN_POINT('',(1.535080837522,2.284182082179E-02,
    5.924424167149));
#297 = CARTESIAN_POINT('',(1.535832309126,2.071967046485E-02,
    5.924230938155));
#298 = CARTESIAN_POINT('',(1.536530043981,1.872647528893E-02,
    5.924050975646));
#299 = CARTESIAN_POINT('',(1.537182409144,1.684305368331E-02,
    5.923882233813));
#300 = CARTESIAN_POINT('',(1.538505150742,1.298522889087E-02,
    5.923539143449));
#301 = CARTESIAN_POINT('',(1.539162502425,1.104257806294E-02,
    5.923368021375));
#302 = CARTESIAN_POINT('',(1.539777430419,9.203536867712E-03,
    5.923207411551));
#303 = CARTESIAN_POINT('',(1.540357404008,7.450007170833E-03,
    5.923055464976));
#304 = CARTESIAN_POINT('',(1.540908132851,5.767756562918E-03,
    5.922910758779));
#305 = CARTESIAN_POINT('',(1.541434061486,4.145359632829E-03,
    5.922772177053));
#306 = CARTESIAN_POINT('',(1.541938863836,2.573139240937E-03,
    5.922638791688));
#307 = CARTESIAN_POINT('',(1.542792185788,-1.091670180147E-04,
    5.92241270617));
#308 = CARTESIAN_POINT('',(1.543148394511,-1.237137123402E-03,
    5.922318124583));
#309 = CARTESIAN_POINT('',(1.543495843084,-2.345262549176E-03,
    5.922225673059));
#310 = CARTESIAN_POINT('',(1.54383569551,-3.43675074644E-03,
    5.922135054045));
#311 = CARTESIAN_POINT('',(1.544169000599,-4.51455659199E-03,
    5.922045997818));
#312 = CARTESIAN_POINT('',(1.544496691966,-5.581382388315E-03,
    5.921958262485));
#313 = CARTESIAN_POINT('',(1.54481958803,-6.639677863592E-03,
    5.921871633981));
#314 = CARTESIAN_POINT('',(1.545313722824,-8.270174830458E-03,
    5.921738789953));
#315 = CARTESIAN_POINT('',(1.545487828848,-8.846825810527E-03,
    5.921691929064));
#316 = CARTESIAN_POINT('',(1.545660834407,-9.42197620019E-03,
    5.921645310615));
#317 = CARTESIAN_POINT('',(1.545832859014,-9.996000661015E-03,
    5.921598902916));
#318 = CARTESIAN_POINT('',(1.546004017376,-1.056926542785E-02,
    5.921552675388));
#319 = CARTESIAN_POINT('',(1.54617441939,-1.11421283088E-02,
    5.921506598555));
#320 = CARTESIAN_POINT('',(1.546344170149,-1.171493868528E-02,
    5.92146064405));
#321 = CARTESIAN_POINT('',(1.546809962791,-1.329262974227E-02,
    5.921334396945));
#322 = CARTESIAN_POINT('',(1.547104876755,-1.429815660841E-02,
    5.921254297534));
#323 = CARTESIAN_POINT('',(1.547398643328,-1.530641938316E-02,
    5.921174342048));
#324 = CARTESIAN_POINT('',(1.547691776463,-1.631922841256E-02,
    5.92109438916));
#325 = CARTESIAN_POINT('',(1.547984772564,-1.733840311586E-02,
    5.921014300553));
#326 = CARTESIAN_POINT('',(1.548278110489,-1.836577198557E-02,
    5.920933940918));
#327 = CARTESIAN_POINT('',(1.548572251547,-1.94031725874E-02,
    5.920853177951));
#328 = CARTESIAN_POINT('',(1.549064405996,-2.115140634648E-02,
    5.920717729006));
#329 = CARTESIAN_POINT('',(1.549261736105,-2.185567263592E-02,
    5.920663336357));
#330 = CARTESIAN_POINT('',(1.549459758929,-2.256578714219E-02,
    5.920608666804));
#331 = CARTESIAN_POINT('',(1.549658606412,-2.328231484326E-02,
    5.920553681484));
#332 = CARTESIAN_POINT('',(1.549858413335,-2.400584898154E-02,
    5.920498340285));
#333 = CARTESIAN_POINT('',(1.55005931732,-2.473701106383E-02,
    5.920442601838));
#334 = CARTESIAN_POINT('',(1.550261458825,-2.547645086136E-02,
    5.920386423521));
#335 = CARTESIAN_POINT('',(1.55085033208,-2.76419718288E-02,
    5.920222474185));
#336 = CARTESIAN_POINT('',(1.55125524311,-2.914456227266E-02,
    5.920109394892));
#337 = CARTESIAN_POINT('',(1.551682477053,-3.074645249402E-02,
    5.91998965876));
#338 = CARTESIAN_POINT('',(1.55213506233,-3.246229272762E-02,
    5.919862331755));
#339 = CARTESIAN_POINT('',(1.552616710595,-3.43104540349E-02,
    5.919726258172));
#340 = CARTESIAN_POINT('',(1.553132234355,-3.631593364868E-02,
    5.919579908158));
#341 = CARTESIAN_POINT('',(1.553687964586,-3.851326031773E-02,
    5.919421225251));
#342 = CARTESIAN_POINT('',(1.554745481493,-4.27771961051E-02,
    5.919117113132));
#343 = CARTESIAN_POINT('',(1.555226094898,-4.474000887319E-02,
    5.91897825181));
#344 = CARTESIAN_POINT('',(1.55573761269,-4.685790868286E-02,
    5.918829708594));
#345 = CARTESIAN_POINT('',(1.556284444792,-4.915791936253E-02,
    5.91866997077));
#346 = CARTESIAN_POINT('',(1.556871888413,-5.167293560647E-02,
    5.918497210216));
#347 = CARTESIAN_POINT('',(1.557506507962,-5.444542931267E-02,
    5.918309115753));
#348 = CARTESIAN_POINT('',(1.558196813365,-5.7535944494E-02,
    5.918102541888));
#349 = CARTESIAN_POINT('',(1.559476889114,-6.345178850941E-02,
    5.917714563935));
#350 = CARTESIAN_POINT('',(1.560031151347,-6.606132358573E-02,
    5.917545295167));
#351 = CARTESIAN_POINT('',(1.560621058558,-6.889562534442E-02,
    5.917363624231));
#352 = CARTESIAN_POINT('',(1.561250900728,-7.199372175775E-02,
    5.917167730961));
#353 = CARTESIAN_POINT('',(1.56192556902,-7.540292734665E-02,
    5.916955464897));
#354 = CARTESIAN_POINT('',(1.562650519296,-7.918317076689E-02,
    5.916724231892));
#355 = CARTESIAN_POINT('',(1.563431352911,-8.341575205238E-02,
    5.916470820849));
#356 = CARTESIAN_POINT('',(1.564665568324,-9.045539031714E-02,
    5.916060748039));
#357 = CARTESIAN_POINT('',(1.565070934744,-9.28163186201E-02,
    5.915924731372));
#358 = CARTESIAN_POINT('',(1.565489817766,-9.531124818378E-02,
    5.915782670343));
#359 = CARTESIAN_POINT('',(1.565922494274,-9.795264147652E-02,
    5.915634172081));
#360 = CARTESIAN_POINT('',(1.56636881431,-0.100753489676,5.915478901093)
  );
#361 = CARTESIAN_POINT('',(1.566828201068,-0.103727312667,5.91531657927)
  );
#362 = CARTESIAN_POINT('',(1.567299650896,-0.106888159047,5.915146985881
    ));
#363 = CARTESIAN_POINT('',(1.568311148728,-0.113943248014,5.914775545758
    ));
#364 = CARTESIAN_POINT('',(1.568852980602,-0.117878848913,5.914572239274
    ));
#365 = CARTESIAN_POINT('',(1.569404920602,-0.122072694081,5.914360002958
    ));
#366 = CARTESIAN_POINT('',(1.56996287606,-0.126538569831,5.914139142733)
  );
#367 = CARTESIAN_POINT('',(1.570521109351,-0.131285109808,5.913910380609
    ));
#368 = CARTESIAN_POINT('',(1.571072377297,-0.13631214127,5.913674929684)
  );
#369 = CARTESIAN_POINT('',(1.571608070564,-0.141607031375,5.913434569147
    ));
#370 = CARTESIAN_POINT('',(1.572877478263,-0.155372922885,5.912830465865
    ));
#371 = CARTESIAN_POINT('',(1.573582757003,-0.164152341435,5.912462778323
    ));
#372 = CARTESIAN_POINT('',(1.574201958135,-0.173379953051,5.91209675053)
  );
#373 = CARTESIAN_POINT('',(1.574708119422,-0.182943804685,5.91173982687)
  );
#374 = CARTESIAN_POINT('',(1.575083194206,-0.192737966557,5.911397726716
    ));
#375 = CARTESIAN_POINT('',(1.575318548302,-0.202676007347,5.911074023981
    ));
#376 = CARTESIAN_POINT('',(1.575412307101,-0.212699304295,5.910770381738
    ));
#377 = CARTESIAN_POINT('',(1.575330940071,-0.229544748481,5.910297563891
    ));
#378 = CARTESIAN_POINT('',(1.575234012612,-0.236333342771,5.910117084553
    ));
#379 = CARTESIAN_POINT('',(1.575073007145,-0.243136838087,5.909946132519
    ));
#380 = CARTESIAN_POINT('',(1.574848330464,-0.249947774653,5.909784763023
    ));
#381 = CARTESIAN_POINT('',(1.574560559527,-0.256760365925,5.909632957899
    ));
#382 = CARTESIAN_POINT('',(1.574210441453,-0.263570498597,5.909490625583
    ));
#383 = CARTESIAN_POINT('',(1.573798893522,-0.270375732593,5.90935760111)
  );
#384 = CARTESIAN_POINT('',(1.572751163885,-0.285471235054,5.909082428815
    ));
#385 = CARTESIAN_POINT('',(1.572085323723,-0.293756783877,5.908944797926
    ));
#386 = CARTESIAN_POINT('',(1.571331059217,-0.302029383377,5.908820418361
    ));
#387 = CARTESIAN_POINT('',(1.570490015946,-0.310286914705,5.90870893732)
  );
#388 = CARTESIAN_POINT('',(1.569563851201,-0.318527762447,5.908609991096
    ));
#389 = CARTESIAN_POINT('',(1.568554176643,-0.326750872752,5.90852321187)
  );
#390 = CARTESIAN_POINT('',(1.567462500965,-0.334955811461,5.908448234511
    ));
#391 = CARTESIAN_POINT('',(1.561159728488,-0.378971423716,5.908106675619
    ));
#392 = CARTESIAN_POINT('',(1.55449177088,-0.414407313412,5.90804823062)
  );
#393 = CARTESIAN_POINT('',(1.546401897667,-0.449500317184,5.908178379664
    ));
#394 = CARTESIAN_POINT('',(1.536986164577,-0.484216499146,5.908473106267
    ));
#395 = CARTESIAN_POINT('',(1.526338970154,-0.51853992679,5.908909584235)
  );
#396 = CARTESIAN_POINT('',(1.514542070513,-0.552449524981,5.909468543736
    ));
#397 = CARTESIAN_POINT('',(1.501666585344,-0.585942226372,5.910132851251
    ));
#398 = CARTESIAN_POINT('',(1.472045670048,-0.65644688537,5.911742458308)
  );
#399 = CARTESIAN_POINT('',(1.455023897892,-0.693321352787,5.912712640142
    ));
#400 = CARTESIAN_POINT('',(1.43679516048,-0.729636238952,5.913776997862)
  );
#401 = CARTESIAN_POINT('',(1.417442394834,-0.765377900073,5.914917069915
    ));
#402 = CARTESIAN_POINT('',(1.397039900882,-0.800533848034,5.916117115849
    ));
#403 = CARTESIAN_POINT('',(1.375653932957,-0.835094612338,5.917363733326
    ));
#404 = CARTESIAN_POINT('',(1.353342858198,-0.869054207876,5.918645567221
    ));
#405 = CARTESIAN_POINT('',(1.314443977621,-0.925013501937,5.920839234694
    ));
#406 = CARTESIAN_POINT('',(1.298330143413,-0.947339119832,5.921737075119
    ));
#407 = CARTESIAN_POINT('',(1.281831428285,-0.969384344266,5.922643705896
    ));
#408 = CARTESIAN_POINT('',(1.26496290336,-0.991147545561,5.923556490242)
  );
#409 = CARTESIAN_POINT('',(1.247738661801,-1.012627182295,5.924473080816
    ));
#410 = CARTESIAN_POINT('',(1.230171818809,-1.033821801299,5.925391419714
    ));
#411 = CARTESIAN_POINT('',(1.212274511628,-1.054730037655,5.92630973847)
  );
#412 = CARTESIAN_POINT('',(1.194057899539,-1.075350614703,5.927226558058
    ));
#413 = ORIENTED_EDGE('',*,*,#414,.F.);
#414 = EDGE_CURVE('',#415,#254,#417,.T.);
#415 = VERTEX_POINT('',#416);
#416 = CARTESIAN_POINT('',(0.487642533816,0.557979303609,6.132117864873)
  );
#417 = B_SPLINE_CURVE_WITH_KNOTS('',8,(#418,#419,#420,#421,#422,#423,
    #424,#425,#426,#427,#428,#429,#430,#431,#432,#433,#434,#435,#436,
    #437,#438,#439,#440),.UNSPECIFIED.,.F.,.F.,(9,7,7,9),(0.,
    0.43760024252,0.835914178154,1.),.UNSPECIFIED.);
#418 = CARTESIAN_POINT('',(0.487642533816,0.557979303609,6.132117864873)
  );
#419 = CARTESIAN_POINT('',(0.547069191369,0.558380351582,6.122276336596)
  );
#420 = CARTESIAN_POINT('',(0.606289666474,0.556855170319,6.112183122859)
  );
#421 = CARTESIAN_POINT('',(0.665225104346,0.553324145195,6.101866349741)
  );
#422 = CARTESIAN_POINT('',(0.723770355321,0.547690992669,6.091359882292)
  );
#423 = CARTESIAN_POINT('',(0.781792821449,0.539845879493,6.080704674958)
  );
#424 = CARTESIAN_POINT('',(0.839132355102,0.529666222413,6.069949331838)
  );
#425 = CARTESIAN_POINT('',(0.895602209618,0.517015168383,6.059149876776)
  );
#426 = CARTESIAN_POINT('',(1.001407259602,0.487831944316,6.038555481318)
  );
#427 = CARTESIAN_POINT('',(1.050889259154,0.471760010101,6.028764879208)
  );
#428 = CARTESIAN_POINT('',(1.099302070346,0.453407574091,6.019039706277)
  );
#429 = CARTESIAN_POINT('',(1.146456124857,0.43263992428,6.009433585627)
  );
#430 = CARTESIAN_POINT('',(1.192099792324,0.409354947209,6.000014045058)
  );
#431 = CARTESIAN_POINT('',(1.235968704534,0.383405564928,5.990850587672)
  );
#432 = CARTESIAN_POINT('',(1.277760338182,0.354737456776,5.982019832471)
  );
#433 = CARTESIAN_POINT('',(1.333595918616,0.310025470735,5.970078783198)
  );
#434 = CARTESIAN_POINT('',(1.349463790888,0.296504665396,5.966667134981)
  );
#435 = CARTESIAN_POINT('',(1.364934930205,0.282464392842,5.963322668078)
  );
#436 = CARTESIAN_POINT('',(1.38000248104,0.267876822333,5.960046928313)
  );
#437 = CARTESIAN_POINT('',(1.394637583593,0.252724447263,5.956845889286)
  );
#438 = CARTESIAN_POINT('',(1.408796132663,0.237009540615,5.953728736734)
  );
#439 = CARTESIAN_POINT('',(1.422431370575,0.220749399983,5.950705191205)
  );
#440 = CARTESIAN_POINT('',(1.435522204797,0.203928000771,5.947778917068)
  );
#441 = ORIENTED_EDGE('',*,*,#442,.T.);
#442 = EDGE_CURVE('',#415,#443,#445,.T.);
#443 = VERTEX_POINT('',#444);
#444 = CARTESIAN_POINT('',(-1.48301573306,3.13291386697,5.712945025262)
  );
#445 = B_SPLINE_CURVE_WITH_KNOTS('',8,(#446,#447,#448,#449,#450,#451,
    #452,#453,#454,#455,#456,#457,#458,#459,#460,#461,#462,#463,#464,
    #465,#466,#467,#468,#469,#470,#471,#472,#473,#474,#475,#476,#477,
    #478,#479,#480,#481,#482,#483,#484,#485,#486,#487,#488,#489,#490,
    #491,#492,#493,#494,#495,#496,#497,#498,#499,#500,#501,#502,#503,
    #504,#505,#506,#507,#508,#509,#510,#511,#512,#513,#514,#515,#516,
    #517,#518,#519,#520,#521,#522,#523,#524,#525,#526,#527,#528,#529,
    #530,#531,#532,#533,#534,#535,#536,#537,#538,#539,#540,#541,#542,
    #543,#544,#545,#546,#547,#548,#549,#550,#551,#552,#553,#554,#555,
    #556,#557,#558,#559),.UNSPECIFIED.,.F.,.F.,(9,7,7,7,7,7,7,7,7,7,7,7,
    7,7,7,7,9),(0.,0.109355477883,0.208472467255,0.347431407877,
    0.376872814943,0.435056908872,0.448387916241,0.454584961943,
    0.45769938864,0.461046087579,0.484158401314,0.524315193303,
    0.582855316794,0.652271828127,0.778362205278,0.907451371742,1.),
  .UNSPECIFIED.);
#446 = CARTESIAN_POINT('',(1.490875714905,-4.382915788785,4.530495739419
    ));
#447 = CARTESIAN_POINT('',(1.513258821011,-4.2755005937,4.603587675465)
  );
#448 = CARTESIAN_POINT('',(1.532676053604,-4.166316121866,4.674995728079
    ));
#449 = CARTESIAN_POINT('',(1.549145971837,-4.055493210374,4.744670551413
    ));
#450 = CARTESIAN_POINT('',(1.562693134988,-3.943160277735,4.81256920517)
  );
#451 = CARTESIAN_POINT('',(1.573347130607,-3.829442839418,4.878654555186
    ));
#452 = CARTESIAN_POINT('',(1.581141714911,-3.714463076994,4.942894744418
    ));
#453 = CARTESIAN_POINT('',(1.586114065424,-3.598339460905,5.005262734323
    ));
#454 = CARTESIAN_POINT('',(1.590289178361,-3.37500193332,5.120547251982)
  );
#455 = CARTESIAN_POINT('',(1.589988515094,-3.267972828974,5.173801422128
    ));
#456 = CARTESIAN_POINT('',(1.587432010125,-3.160183015379,5.225482330678
    ));
#457 = CARTESIAN_POINT('',(1.582651200418,-3.051714882777,5.275576094322
    ));
#458 = CARTESIAN_POINT('',(1.575679128653,-2.942649262028,5.324070913431
    ));
#459 = CARTESIAN_POINT('',(1.566550206661,-2.833065437428,5.370956947377
    ));
#460 = CARTESIAN_POINT('',(1.555300119455,-2.723041220416,5.416226194568
    ));
#461 = CARTESIAN_POINT('',(1.523271425912,-2.457892345648,5.521062969693
    ));
#462 = CARTESIAN_POINT('',(1.500499256777,-2.302572424521,5.579001653287
    ));
#463 = CARTESIAN_POINT('',(1.473745751542,-2.146742215552,5.633747542597
    ));
#464 = CARTESIAN_POINT('',(1.443099693012,-1.990551279183,5.685302745569
    ));
#465 = CARTESIAN_POINT('',(1.408672410161,-1.834261865758,5.73363255075)
  );
#466 = CARTESIAN_POINT('',(1.370620477361,-1.6782562409,5.77868142271));
#467 = CARTESIAN_POINT('',(1.329177803791,-1.523063388624,5.820387440736
    ));
#468 = CARTESIAN_POINT('',(1.275293465908,-1.336878491743,5.866814683704
    ));
#469 = CARTESIAN_POINT('',(1.265739673243,-1.304406106043,5.874777049403
    ));
#470 = CARTESIAN_POINT('',(1.256057090868,-1.272021734005,5.882583873111
    ));
#471 = CARTESIAN_POINT('',(1.246251045007,-1.239737473996,5.89023371829)
  );
#472 = CARTESIAN_POINT('',(1.236327848046,-1.207567750512,5.897724839377
    ));
#473 = CARTESIAN_POINT('',(1.226294870868,-1.175529264217,5.905055269412
    ));
#474 = CARTESIAN_POINT('',(1.216160615187,-1.143640941988,5.912222907659
    ));
#475 = CARTESIAN_POINT('',(1.185725812474,-1.049242504052,5.933064814318
    ));
#476 = CARTESIAN_POINT('',(1.165149000687,-0.987198519597,5.946266764809
    ));
#477 = CARTESIAN_POINT('',(1.14428862213,-0.92598673169,5.958807040999)
  );
#478 = CARTESIAN_POINT('',(1.12325268407,-0.865848570471,5.970658464857)
  );
#479 = CARTESIAN_POINT('',(1.102176227846,-0.807067869009,5.981796069077
    ));
#480 = CARTESIAN_POINT('',(1.081211293489,-0.749938659807,5.992204507935
    ));
#481 = CARTESIAN_POINT('',(1.060511280459,-0.694727763057,6.001883219167
    ));
#482 = CARTESIAN_POINT('',(1.035567754467,-0.629495006503,6.012897870275
    ));
#483 = CARTESIAN_POINT('',(1.030939295637,-0.617447066633,6.014913477284
    ));
#484 = CARTESIAN_POINT('',(1.026333634716,-0.605513408758,6.016891686862
    ));
#485 = CARTESIAN_POINT('',(1.021752226993,-0.593696003748,6.018832773894
    ));
#486 = CARTESIAN_POINT('',(1.017196406207,-0.581996497737,6.020737070363
    ));
#487 = CARTESIAN_POINT('',(1.012667384542,-0.570416212123,6.022604965354
    ));
#488 = CARTESIAN_POINT('',(1.008166252633,-0.558956143568,6.024436905053
    ));
#489 = CARTESIAN_POINT('',(1.001615000843,-0.542345838415,6.027068507153
    ));
#490 = CARTESIAN_POINT('',(0.999542254351,-0.537100829298,6.027895960594
    ));
#491 = CARTESIAN_POINT('',(0.997475835149,-0.531882000554,6.028715803441
    ));
#492 = CARTESIAN_POINT('',(0.995415831622,-0.526689400215,6.029528088225
    ));
#493 = CARTESIAN_POINT('',(0.993362325482,-0.521523060436,6.03033286963)
  );
#494 = CARTESIAN_POINT('',(0.99131539176,-0.5163829975,6.031130204495));
#495 = CARTESIAN_POINT('',(0.989275098815,-0.511269211816,6.031920151816
    ));
#496 = CARTESIAN_POINT('',(0.986219494158,-0.503624869554,6.03309609169)
  );
#497 = CARTESIAN_POINT('',(0.985242534963,-0.501183158522,6.033470875725
    ));
#498 = CARTESIAN_POINT('',(0.984278744948,-0.498776431656,6.03383957252)
  );
#499 = CARTESIAN_POINT('',(0.983309471596,-0.496358059943,6.034209343031
    ));
#500 = CARTESIAN_POINT('',(0.982329102961,-0.493914179414,6.034582259152
    ));
#501 = CARTESIAN_POINT('',(0.981344874955,-0.491462962026,6.03495550139)
  );
#502 = CARTESIAN_POINT('',(0.980376678639,-0.489053886557,6.035321556519
    ));
#503 = CARTESIAN_POINT('',(0.978468457368,-0.48430957837,6.036041142516)
  );
#504 = CARTESIAN_POINT('',(0.977500773475,-0.481905884122,6.036404950806
    ));
#505 = CARTESIAN_POINT('',(0.976552280738,-0.479551926768,6.036760510677
    ));
#506 = CARTESIAN_POINT('',(0.975617382612,-0.477233673894,6.037109991587
    ));
#507 = CARTESIAN_POINT('',(0.974688501141,-0.474932230404,6.037456278381
    ));
#508 = CARTESIAN_POINT('',(0.973756327472,-0.472624500595,6.037802857208
    ));
#509 = CARTESIAN_POINT('',(0.97280824286,-0.47027934255,6.038154370871)
  );
#510 = CARTESIAN_POINT('',(0.965034011172,-0.45106674506,6.041027987479)
  );
#511 = CARTESIAN_POINT('',(0.958231717666,-0.434358339423,6.043491231317
    ));
#512 = CARTESIAN_POINT('',(0.951414879676,-0.417714682939,6.045909504687
    ));
#513 = CARTESIAN_POINT('',(0.944580012779,-0.401126004035,6.048284675774
    ));
#514 = CARTESIAN_POINT('',(0.937723298072,-0.384582074563,6.050618551388
    ));
#515 = CARTESIAN_POINT('',(0.930840582174,-0.368072209803,6.052912876953
    ));
#516 = CARTESIAN_POINT('',(0.923927377223,-0.351585268458,6.055169336516
    ));
#517 = CARTESIAN_POINT('',(0.904906070217,-0.306483878364,6.061247096483
    ));
#518 = CARTESIAN_POINT('',(0.892727323591,-0.277893899348,6.064994982027
    ));
#519 = CARTESIAN_POINT('',(0.880416849249,-0.24927784237,6.068641827003)
  );
#520 = CARTESIAN_POINT('',(0.867946592503,-0.220572064334,6.072195156887
    ));
#521 = CARTESIAN_POINT('',(0.855286721813,-0.191712370236,6.07566123431)
  );
#522 = CARTESIAN_POINT('',(0.842406134867,-0.162635231113,6.079044888361
    ));
#523 = CARTESIAN_POINT('',(0.829272964662,-0.133279001985,6.082349343895
    ));
#524 = CARTESIAN_POINT('',(0.796294651113,-6.029775869125E-02,
    6.090279908234));
#525 = CARTESIAN_POINT('',(0.776124692109,-1.628288911166E-02,
    6.094819646134));
#526 = CARTESIAN_POINT('',(0.755255384684,2.861895596183E-02,
    6.099197218281));
#527 = CARTESIAN_POINT('',(0.733602649485,7.454068597645E-02,
    6.103406264544));
#528 = CARTESIAN_POINT('',(0.711095625503,0.121572941586,6.107430737817)
  );
#529 = CARTESIAN_POINT('',(0.687690053724,0.16974128849,6.111245091519)
  );
#530 = CARTESIAN_POINT('',(0.663380419106,0.218990404194,6.114816888235)
  );
#531 = CARTESIAN_POINT('',(0.608349302923,0.328714979117,6.122020831083)
  );
#532 = CARTESIAN_POINT('',(0.577266811782,0.389593830222,6.125542029694)
  );
#533 = CARTESIAN_POINT('',(0.545006458023,0.451629186508,6.128621421947)
  );
#534 = CARTESIAN_POINT('',(0.511644288825,0.514587017458,6.131207851372)
  );
#535 = CARTESIAN_POINT('',(0.477273219772,0.578223506158,6.133259876766)
  );
#536 = CARTESIAN_POINT('',(0.441988102266,0.642314458928,6.134747545016)
  );
#537 = CARTESIAN_POINT('',(0.405872652709,0.706675163582,6.135651000557)
  );
#538 = CARTESIAN_POINT('',(0.302012322111,0.888290204094,6.13651283607)
  );
#539 = CARTESIAN_POINT('',(0.232541180336,1.005786610772,6.135097265802)
  );
#540 = CARTESIAN_POINT('',(0.160832887944,1.123064758707,6.131635136895)
  );
#541 = CARTESIAN_POINT('',(8.710825071305E-02,1.239684566223,
    6.126097631927));
#542 = CARTESIAN_POINT('',(1.153378971229E-02,1.355356228464,
    6.118484059943));
#543 = CARTESIAN_POINT('',(-6.577517166546E-02,1.469896857942,
    6.108802850189));
#544 = CARTESIAN_POINT('',(-0.144767432643,1.583226466272,6.097058349646
    ));
#545 = CARTESIAN_POINT('',(-0.30807481789,1.810136660368,6.069085102444)
  );
#546 = CARTESIAN_POINT('',(-0.392400485743,1.923559963769,6.052768583592
    ));
#547 = CARTESIAN_POINT('',(-0.478378272491,2.035521661466,6.034290484957
    ));
#548 = CARTESIAN_POINT('',(-0.56595106486,2.145934361032,6.013656571867)
  );
#549 = CARTESIAN_POINT('',(-0.655064759525,2.254717442952,5.990873389421
    ));
#550 = CARTESIAN_POINT('',(-0.745668455722,2.36179575358,5.965947442153)
  );
#551 = CARTESIAN_POINT('',(-0.837714836457,2.467098742111,5.938884432376
    ));
#552 = CARTESIAN_POINT('',(-0.998155148936,2.644734095193,5.888756722518
    ));
#553 = CARTESIAN_POINT('',(-1.065866692613,2.717959279239,5.866729397588
    ));
#554 = CARTESIAN_POINT('',(-1.134277525093,2.790208622345,5.843608550319
    ));
#555 = CARTESIAN_POINT('',(-1.20336975735,2.861455556658,5.819396389136)
  );
#556 = CARTESIAN_POINT('',(-1.273125286314,2.931673303592,5.794095202466
    ));
#557 = CARTESIAN_POINT('',(-1.343525794392,3.000834866832,5.767707355651
    ));
#558 = CARTESIAN_POINT('',(-1.414552748981,3.068913025331,5.740235287873
    ));
#559 = CARTESIAN_POINT('',(-1.486187401992,3.135880326314,5.711681509066
    ));
#560 = ORIENTED_EDGE('',*,*,#561,.T.);
#561 = EDGE_CURVE('',#443,#24,#562,.T.);
#562 = B_SPLINE_CURVE_WITH_KNOTS('',6,(#563,#564,#565,#566,#567,#568,
    #569,#570,#571,#572,#573,#574,#575,#576,#577,#578,#579,#580,#581,
    #582,#583,#584,#585,#586,#587,#588,#589,#590,#591,#592,#593,#594,
    #595,#596,#597,#598,#599,#600,#601,#602,#603,#604,#605,#606,#607,
    #608,#609,#610,#611,#612,#613,#614,#615,#616,#617,#618,#619),
  .UNSPECIFIED.,.F.,.F.,(7,5,5,5,5,5,5,5,5,5,5,7),(0.,8.507872859913E-02
    ,0.239447693944,0.276595477035,0.290369753736,0.296264216455,
    0.301761127074,0.387943307989,0.535199874081,0.682997040492,
    0.836700861757,1.),.UNSPECIFIED.);
#563 = CARTESIAN_POINT('',(-1.48301573306,3.13291386697,5.712945025262)
  );
#564 = CARTESIAN_POINT('',(-1.410416459875,3.194086482662,5.688197245398
    ));
#565 = CARTESIAN_POINT('',(-1.338084478351,3.254502634466,5.662191210836
    ));
#566 = CARTESIAN_POINT('',(-1.266082743397,3.314218719424,5.634928514209
    ));
#567 = CARTESIAN_POINT('',(-1.194471831291,3.373287843189,5.606409167214
    ));
#568 = CARTESIAN_POINT('',(-1.123309939675,3.431759820023,5.5766316006)
  );
#569 = CARTESIAN_POINT('',(-0.924450971417,3.594775118682,5.489274844441
    ));
#570 = CARTESIAN_POINT('',(-0.797913590882,3.698054836858,5.428805379062
    ));
#571 = CARTESIAN_POINT('',(-0.673372631071,3.799800036354,5.364164722265
    ));
#572 = CARTESIAN_POINT('',(-0.551151368279,3.900248980901,5.295320821254
    ));
#573 = CARTESIAN_POINT('',(-0.431563642804,3.999596780775,5.222232681425
    ));
#574 = CARTESIAN_POINT('',(-0.286841899827,4.121672193026,5.126233291018
    ));
#575 = CARTESIAN_POINT('',(-0.258940931488,4.145295555101,5.107364243533
    ));
#576 = CARTESIAN_POINT('',(-0.231214391216,4.168865825499,5.088246169524
    ));
#577 = CARTESIAN_POINT('',(-0.203666512079,4.192384886053,5.068878448529
    ));
#578 = CARTESIAN_POINT('',(-0.176301495763,4.215854445791,5.049260459215
    ));
#579 = CARTESIAN_POINT('',(-0.139046005126,4.247960691957,5.022024263591
    ));
#580 = CARTESIAN_POINT('',(-0.128994212821,4.256638748118,5.014622453009
    ));
#581 = CARTESIAN_POINT('',(-0.118968348163,4.265310287576,5.007186116067
    ));
#582 = CARTESIAN_POINT('',(-0.108968622946,4.273975385072,4.999715221342
    ));
#583 = CARTESIAN_POINT('',(-9.899524824785E-02,4.282634111929,
    4.992209737544));
#584 = CARTESIAN_POINT('',(-8.479186804829E-02,4.294989190831,
    4.981442976829));
#585 = CARTESIAN_POINT('',(-8.054016565887E-02,4.298690691411,
    4.978209980265));
#586 = CARTESIAN_POINT('',(-7.629334374978E-02,4.302391043112,
    4.974970641387));
#587 = CARTESIAN_POINT('',(-7.205141877901E-02,4.306090251138,
    4.971724957762));
#588 = CARTESIAN_POINT('',(-6.781440717861E-02,4.309788320576,
    4.968472926962));
#589 = CARTESIAN_POINT('',(-5.963567633328E-02,4.316932852343,
    4.962175927675));
#590 = CARTESIAN_POINT('',(-5.569329802832E-02,4.320379476913,
    4.959131773889));
#591 = CARTESIAN_POINT('',(-5.175530220109E-02,4.323825047757,
    4.956082160232));
#592 = CARTESIAN_POINT('',(-4.782144890956E-02,4.327269790972,
    4.953026886781));
#593 = CARTESIAN_POINT('',(-4.389212026092E-02,4.330713386837,
    4.949966239913));
#594 = CARTESIAN_POINT('',(2.157219658285E-02,4.388132445203,
    4.89882591857));
#595 = CARTESIAN_POINT('',(8.207939887472E-02,4.441900702305,
    4.849365405691));
#596 = CARTESIAN_POINT('',(0.141494129472,4.495469152096,4.798513322201)
  );
#597 = CARTESIAN_POINT('',(0.199759114325,4.548841245345,4.746265323004)
  );
#598 = CARTESIAN_POINT('',(0.256820283157,4.602015631335,4.692617816863)
  );
#599 = CARTESIAN_POINT('',(0.407981417648,4.745495097855,4.54350615622)
  );
#600 = CARTESIAN_POINT('',(0.499673504222,4.83540868951,4.445350020353)
  );
#601 = CARTESIAN_POINT('',(0.587449879454,4.92469482186,4.343086564204)
  );
#602 = CARTESIAN_POINT('',(0.671089608976,5.013275459961,4.236710527213)
  );
#603 = CARTESIAN_POINT('',(0.750409670437,5.101024355991,4.126227623181)
  );
#604 = CARTESIAN_POINT('',(0.90040645544,5.274823601348,3.896667335411)
  );
#605 = CARTESIAN_POINT('',(0.971050962341,5.360867207768,3.777559014557)
  );
#606 = CARTESIAN_POINT('',(1.037062098377,5.445717335331,3.654353712968)
  );
#607 = CARTESIAN_POINT('',(1.09834449045,5.529147161604,3.527083681356)
  );
#608 = CARTESIAN_POINT('',(1.154849776419,5.610885919803,3.395795527742)
  );
#609 = CARTESIAN_POINT('',(1.260371311497,5.773547827354,3.119906005271)
  );
#610 = CARTESIAN_POINT('',(1.308998329622,5.854308447713,2.974981339553)
  );
#611 = CARTESIAN_POINT('',(1.352456609193,5.932557758179,2.825850356222)
  );
#612 = CARTESIAN_POINT('',(1.390800733521,6.007905060537,2.672600842325)
  );
#613 = CARTESIAN_POINT('',(1.424137149878,6.079926670835,2.515340264863)
  );
#614 = CARTESIAN_POINT('',(1.482881140047,6.220685944036,2.182997702067)
  );
#615 = CARTESIAN_POINT('',(1.507663660502,6.288937643101,2.007416756774)
  );
#616 = CARTESIAN_POINT('',(1.527153069267,6.352396521562,1.827610492533)
  );
#617 = CARTESIAN_POINT('',(1.541594337585,6.410497527333,1.643765303968)
  );
#618 = CARTESIAN_POINT('',(1.551288563345,6.462661011462,1.456104557689)
  );
#619 = CARTESIAN_POINT('',(1.556589546105,6.508308611374,1.264893699984)
  );
#620 = ( BOUNDED_SURFACE() B_SPLINE_SURFACE(2,2,(
    (#621,#622,#623,#624,#625)
    ,(#626,#627,#628,#629,#630)
    ,(#631,#632,#633,#634,#635)
    ,(#636,#637,#638,#639,#640)
    ,(#641,#642,#643,#644,#645)
    ,(#646,#647,#648,#649,#650)
    ,(#651,#652,#653,#654,#655
)),.UNSPECIFIED.,.T.,.F.,.F.) B_SPLINE_SURFACE_WITH_KNOTS((1,2,2,2,2,1),
  (3,2,3),(-2.094395102393,0.,2.094395102393,4.188790204786,
    6.28318530718,8.377580409573),(-1.570796326795,0.,1.570796326795),
.UNSPECIFIED.) GEOMETRIC_REPRESENTATION_ITEM() RATIONAL_B_SPLINE_SURFACE
((
    (1.,0.707106781187,1.,0.707106781187,1.)
    ,(0.5,0.353553390593,0.5,0.353553390593,0.5)
    ,(1.,0.707106781187,1.,0.707106781187,1.)
    ,(0.5,0.353553390593,0.5,0.353553390593,0.5)
    ,(1.,0.707106781187,1.,0.707106781187,1.)
    ,(0.5,0.353553390593,0.5,0.353553390593,0.5)
,(1.,0.707106781187,1.,0.707106781187,1.
))) REPRESENTATION_ITEM('') SURFACE() );
#621 = CARTESIAN_POINT('',(-1.583972556027,-1.5667278264E-16,
    -5.911466056889));
#622 = CARTESIAN_POINT('',(6.022449869151,-2.558660713425,
    -7.949600803006));
#623 = CARTESIAN_POINT('',(7.606422425178,-2.558660713425,
    -2.038134746116));
#624 = CARTESIAN_POINT('',(9.190394981205,-2.558660713425,3.873331310773
    ));
#625 = CARTESIAN_POINT('',(1.583972556027,-1.5667278264E-16,
    5.911466056889));
#626 = CARTESIAN_POINT('',(-1.583972556027,5.332554397585E-16,
    -5.911466056889));
#627 = CARTESIAN_POINT('',(9.558699142868,8.708722223089,-8.897135940133
    ));
#628 = CARTESIAN_POINT('',(11.142671698895,8.708722223089,
    -2.985669883244));
#629 = CARTESIAN_POINT('',(12.726644254923,8.708722223089,2.925796173645
    ));
#630 = CARTESIAN_POINT('',(1.583972556027,5.332554397585E-16,
    5.911466056889));
#631 = CARTESIAN_POINT('',(-1.583972556027,4.233005025192E-16,
    -5.911466056889));
#632 = CARTESIAN_POINT('',(-3.619059131758,6.913021824969,
    -5.366166252395));
#633 = CARTESIAN_POINT('',(-2.03508657573,6.913021824969,0.545299804494)
  );
#634 = CARTESIAN_POINT('',(-0.451114019703,6.913021824969,6.456765861383
    ));
#635 = CARTESIAN_POINT('',(1.583972556027,4.233005025192E-16,
    5.911466056889));
#636 = CARTESIAN_POINT('',(-1.583972556027,3.133455652799E-16,
    -5.911466056889));
#637 = CARTESIAN_POINT('',(-16.79681740638,5.117321426849,
    -1.835196564656));
#638 = CARTESIAN_POINT('',(-15.21284485035,5.117321426849,4.076269492233
    ));
#639 = CARTESIAN_POINT('',(-13.62887229432,5.117321426849,9.987735549122
    ));
#640 = CARTESIAN_POINT('',(1.583972556027,3.133455652799E-16,
    5.911466056889));
#641 = CARTESIAN_POINT('',(-1.583972556027,-2.666277198792E-16,
    -5.911466056889));
#642 = CARTESIAN_POINT('',(-7.155308405475,-4.354361111545,
    -4.418631115267));
#643 = CARTESIAN_POINT('',(-5.571335849448,-4.354361111545,
    1.492834941622));
#644 = CARTESIAN_POINT('',(-3.98736329342,-4.354361111545,7.404300998511
    ));
#645 = CARTESIAN_POINT('',(1.583972556027,-2.666277198792E-16,
    5.911466056889));
#646 = CARTESIAN_POINT('',(-1.583972556027,-8.466010050384E-16,
    -5.911466056889));
#647 = CARTESIAN_POINT('',(2.486200595433,-13.82604364993,
    -7.002065665878));
#648 = CARTESIAN_POINT('',(4.070173151461,-13.82604364993,
    -1.090599608989));
#649 = CARTESIAN_POINT('',(5.654145707488,-13.82604364993,4.8208664479)
  );
#650 = CARTESIAN_POINT('',(1.583972556027,-8.466010050384E-16,
    5.911466056889));
#651 = CARTESIAN_POINT('',(-1.583972556027,-1.5667278264E-16,
    -5.911466056889));
#652 = CARTESIAN_POINT('',(6.022449869151,-2.558660713425,
    -7.949600803006));
#653 = CARTESIAN_POINT('',(7.606422425178,-2.558660713425,
    -2.038134746116));
#654 = CARTESIAN_POINT('',(9.190394981205,-2.558660713425,3.873331310773
    ));
#655 = CARTESIAN_POINT('',(1.583972556027,-1.5667278264E-16,
    5.911466056889));
#656 = ADVANCED_FACE('',(#657),#683,.F.);
#657 = FACE_BOUND('',#658,.F.);
#658 = EDGE_LOOP('',(#659,#671,#681,#682));
#659 = ORIENTED_EDGE('',*,*,#660,.T.);
#660 = EDGE_CURVE('',#78,#661,#663,.T.);
#661 = VERTEX_POINT('',#662);
#662 = CARTESIAN_POINT('',(7.506811152757,3.709188309204,5.018376618407)
  );
#663 = ( BOUNDED_CURVE() B_SPLINE_CURVE(2,(#664,#665,#666,#667,#668,#669
,#670),.UNSPECIFIED.,.T.,.F.) B_SPLINE_CURVE_WITH_KNOTS((1,2,2,2,2,1),(
    -2.094395102393,0.,2.094395102393,4.188790204786,6.28318530718,
8.377580409573),.UNSPECIFIED.) CURVE() GEOMETRIC_REPRESENTATION_ITEM() 
RATIONAL_B_SPLINE_CURVE((1.,0.5,1.,0.5,1.,0.5,1.)) REPRESENTATION_ITEM(
  '') );
#664 = CARTESIAN_POINT('',(7.506811152757,3.709188309204,5.018376618407)
  );
#665 = CARTESIAN_POINT('',(2.830273972321,11.809188309204,5.018376618407
    ));
#666 = CARTESIAN_POINT('',(0.208325833403,4.895405845398,-0.709188309204
    ));
#667 = CARTESIAN_POINT('',(-2.413622305515,-2.018376618407,
    -6.436753236815));
#668 = CARTESIAN_POINT('',(4.884863013839,-3.204594154602,
    -0.709188309204));
#669 = CARTESIAN_POINT('',(12.183348333193,-4.390811690796,
    5.018376618407));
#670 = CARTESIAN_POINT('',(7.506811152757,3.709188309204,5.018376618407)
  );
#671 = ORIENTED_EDGE('',*,*,#672,.T.);
#672 = EDGE_CURVE('',#661,#24,#673,.T.);
#673 = ( BOUNDED_CURVE() B_SPLINE_CURVE(2,(#674,#675,#676,#677,#678,#679
,#680),.UNSPECIFIED.,.T.,.F.) B_SPLINE_CURVE_WITH_KNOTS((1,2,2,2,2,1),(
    -2.094395102393,0.,2.094395102393,4.188790204786,6.28318530718,
8.377580409573),.UNSPECIFIED.) CURVE() GEOMETRIC_REPRESENTATION_ITEM() 
RATIONAL_B_SPLINE_CURVE((1.,0.5,1.,0.5,1.,0.5,1.)) REPRESENTATION_ITEM(
  '') );
#674 = CARTESIAN_POINT('',(7.506811152757,3.709188309204,5.018376618407)
  );
#675 = CARTESIAN_POINT('',(2.830273972321,11.809188309204,5.018376618407
    ));
#676 = CARTESIAN_POINT('',(0.208325833403,4.895405845398,-0.709188309204
    ));
#677 = CARTESIAN_POINT('',(-2.413622305515,-2.018376618407,
    -6.436753236815));
#678 = CARTESIAN_POINT('',(4.884863013839,-3.204594154602,
    -0.709188309204));
#679 = CARTESIAN_POINT('',(12.183348333193,-4.390811690796,
    5.018376618407));
#680 = CARTESIAN_POINT('',(7.506811152757,3.709188309204,5.018376618407)
  );
#681 = ORIENTED_EDGE('',*,*,#21,.F.);
#682 = ORIENTED_EDGE('',*,*,#77,.F.);
#683 = B_SPLINE_SURFACE_WITH_KNOTS('',1,1,(
    (#684,#685)
    ,(#686,#687
    )),.UNSPECIFIED.,.F.,.F.,.F.,(2,2),(2,2),(-5.4,5.4),(-5.4,5.4),
  .PIECEWISE_BEZIER_KNOTS.);
#684 = CARTESIAN_POINT('',(3.593188847243,-4.78572548964,-2.618376618407
    ));
#685 = CARTESIAN_POINT('',(-1.806811152757,4.567348871232,
    -2.618376618407));
#686 = CARTESIAN_POINT('',(10.206811152757,-0.967348871232,
    5.018376618407));
#687 = CARTESIAN_POINT('',(4.806811152757,8.38572548964,5.018376618407)
  );
#688 = ADVANCED_FACE('',(#689),#710,.T.);
#689 = FACE_BOUND('',#690,.T.);
#690 = EDGE_LOOP('',(#691,#703,#708,#709));
#691 = ORIENTED_EDGE('',*,*,#692,.F.);
#692 = EDGE_CURVE('',#693,#443,#695,.T.);
#693 = VERTEX_POINT('',#694);
#694 = CARTESIAN_POINT('',(2.852780641469,1.022182540695,8.412489168103)
  );
#695 = ( BOUNDED_CURVE() B_SPLINE_CURVE(2,(#696,#697,#698,#699,#700,#701
,#702),.UNSPECIFIED.,.T.,.F.) B_SPLINE_CURVE_WITH_KNOTS((1,2,2,2,2,1),(
    -2.094395102393,0.,2.094395102393,4.188790204786,6.28318530718,
8.377580409573),.UNSPECIFIED.) CURVE() GEOMETRIC_REPRESENTATION_ITEM() 
RATIONAL_B_SPLINE_CURVE((1.,0.5,1.,0.5,1.,0.5,1.)) REPRESENTATION_ITEM(
  '') );
#696 = CARTESIAN_POINT('',(2.852780641469,1.022182540695,8.412489168103)
  );
#697 = CARTESIAN_POINT('',(-0.611320973669,7.022182540695,8.412489168103
    ));
#698 = CARTESIAN_POINT('',(-2.553504780274,1.900862197135,4.169848480984
    ));
#699 = CARTESIAN_POINT('',(-4.49568858688,-3.220458146424,
    -7.279220613578E-02));
#700 = CARTESIAN_POINT('',(0.910596834863,-4.099137802865,4.169848480983
    ));
#701 = CARTESIAN_POINT('',(6.316882256607,-4.977817459305,8.412489168103
    ));
#702 = CARTESIAN_POINT('',(2.852780641469,1.022182540695,8.412489168103)
  );
#703 = ORIENTED_EDGE('',*,*,#704,.F.);
#704 = EDGE_CURVE('',#661,#693,#705,.T.);
#705 = B_SPLINE_CURVE_WITH_KNOTS('',1,(#706,#707),.UNSPECIFIED.,.F.,.F.,
  (2,2),(0.,6.356099432828),.PIECEWISE_BEZIER_KNOTS.);
#706 = CARTESIAN_POINT('',(7.506811152757,3.709188309204,5.018376618407)
  );
#707 = CARTESIAN_POINT('',(2.852780641469,1.022182540695,8.412489168103)
  );
#708 = ORIENTED_EDGE('',*,*,#672,.T.);
#709 = ORIENTED_EDGE('',*,*,#561,.F.);
#710 = ( BOUNDED_SURFACE() B_SPLINE_SURFACE(2,1,(
    (#711,#712)
    ,(#713,#714)
    ,(#715,#716)
    ,(#717,#718)
    ,(#719,#720)
    ,(#721,#722)
,(#723,#724
    )),.UNSPECIFIED.,.T.,.F.,.F.) B_SPLINE_SURFACE_WITH_KNOTS((1,2,2,2,2
    ,1),(2,2),(-2.094395102393,0.,2.094395102393,4.188790204786,
    6.28318530718,8.377580409573),(0.,6.356099432828),.UNSPECIFIED.) 
GEOMETRIC_REPRESENTATION_ITEM() RATIONAL_B_SPLINE_SURFACE((
    (1.,1.)
    ,(0.5,0.5)
    ,(1.,1.)
    ,(0.5,0.5)
    ,(1.,1.)
    ,(0.5,0.5)
,(1.,1.))) REPRESENTATION_ITEM('') SURFACE() );
#711 = CARTESIAN_POINT('',(7.506811152757,3.709188309204,5.018376618407)
  );
#712 = CARTESIAN_POINT('',(2.852780641469,1.022182540695,8.412489168103)
  );
#713 = CARTESIAN_POINT('',(2.830273972321,11.809188309204,5.018376618407
    ));
#714 = CARTESIAN_POINT('',(-0.611320973669,7.022182540695,8.412489168103
    ));
#715 = CARTESIAN_POINT('',(0.208325833403,4.895405845398,-0.709188309204
    ));
#716 = CARTESIAN_POINT('',(-2.553504780274,1.900862197135,4.169848480984
    ));
#717 = CARTESIAN_POINT('',(-2.413622305515,-2.018376618407,
    -6.436753236815));
#718 = CARTESIAN_POINT('',(-4.49568858688,-3.220458146424,
    -7.279220613578E-02));
#719 = CARTESIAN_POINT('',(4.884863013839,-3.204594154602,
    -0.709188309204));
#720 = CARTESIAN_POINT('',(0.910596834863,-4.099137802865,4.169848480983
    ));
#721 = CARTESIAN_POINT('',(12.183348333193,-4.390811690796,
    5.018376618407));
#722 = CARTESIAN_POINT('',(6.316882256607,-4.977817459305,8.412489168103
    ));
#723 = CARTESIAN_POINT('',(7.506811152757,3.709188309204,5.018376618407)
  );
#724 = CARTESIAN_POINT('',(2.852780641469,1.022182540695,8.412489168103)
  );
#725 = ADVANCED_FACE('',(#726),#763,.T.);
#726 = FACE_BOUND('',#727,.T.);
#727 = EDGE_LOOP('',(#728,#738,#739,#740,#752,#762));
#728 = ORIENTED_EDGE('',*,*,#729,.T.);
#729 = EDGE_CURVE('',#88,#693,#730,.T.);
#730 = ( BOUNDED_CURVE() B_SPLINE_CURVE(2,(#731,#732,#733,#734,#735,#736
,#737),.UNSPECIFIED.,.T.,.F.) B_SPLINE_CURVE_WITH_KNOTS((1,2,2,2,2,1),(
    -2.094395102393,0.,2.094395102393,4.188790204786,6.28318530718,
8.377580409573),.UNSPECIFIED.) CURVE() GEOMETRIC_REPRESENTATION_ITEM() 
RATIONAL_B_SPLINE_CURVE((1.,0.5,1.,0.5,1.,0.5,1.)) REPRESENTATION_ITEM(
  '') );
#731 = CARTESIAN_POINT('',(2.852780641469,1.022182540695,8.412489168103)
  );
#732 = CARTESIAN_POINT('',(-0.611320973669,7.022182540695,8.412489168103
    ));
#733 = CARTESIAN_POINT('',(-2.553504780274,1.900862197135,4.169848480984
    ));
#734 = CARTESIAN_POINT('',(-4.49568858688,-3.220458146424,
    -7.279220613578E-02));
#735 = CARTESIAN_POINT('',(0.910596834863,-4.099137802865,4.169848480983
    ));
#736 = CARTESIAN_POINT('',(6.316882256607,-4.977817459305,8.412489168103
    ));
#737 = CARTESIAN_POINT('',(2.852780641469,1.022182540695,8.412489168103)
  );
#738 = ORIENTED_EDGE('',*,*,#692,.T.);
#739 = ORIENTED_EDGE('',*,*,#442,.F.);
#740 = ORIENTED_EDGE('',*,*,#741,.F.);
#741 = EDGE_CURVE('',#742,#415,#744,.T.);
#742 = VERTEX_POINT('',#743);
#743 = CARTESIAN_POINT('',(1.076900577951,-3.122292025697E-03,
    6.361879502662));
#744 = ( BOUNDED_CURVE() B_SPLINE_CURVE(2,(#745,#746,#747,#748,#749,#750
,#751),.UNSPECIFIED.,.T.,.F.) B_SPLINE_CURVE_WITH_KNOTS((1,2,2,2,2,1),(
    -2.094395102393,0.,2.094395102393,4.188790204786,6.28318530718,
8.377580409573),.UNSPECIFIED.) CURVE() GEOMETRIC_REPRESENTATION_ITEM() 
RATIONAL_B_SPLINE_CURVE((1.,0.5,1.,0.5,1.,0.5,1.)) REPRESENTATION_ITEM(
  '') );
#745 = CARTESIAN_POINT('',(1.076900577951,-3.122292025696E-03,
    6.361879502662));
#746 = CARTESIAN_POINT('',(0.124272633789,1.646877707974,6.361879502662)
  );
#747 = CARTESIAN_POINT('',(-0.409827913028,0.238514613495,5.195153313704
    ));
#748 = CARTESIAN_POINT('',(-0.943928459845,-1.169848480983,
    4.028427124746));
#749 = CARTESIAN_POINT('',(0.542800031135,-1.411485386505,5.195153313704
    ));
#750 = CARTESIAN_POINT('',(2.029528522114,-1.653122292026,6.361879502662
    ));
#751 = CARTESIAN_POINT('',(1.076900577951,-3.122292025696E-03,
    6.361879502662));
#752 = ORIENTED_EDGE('',*,*,#753,.F.);
#753 = EDGE_CURVE('',#135,#742,#754,.T.);
#754 = ( BOUNDED_CURVE() B_SPLINE_CURVE(2,(#755,#756,#757,#758,#759,#760
,#761),.UNSPECIFIED.,.T.,.F.) B_SPLINE_CURVE_WITH_KNOTS((1,2,2,2,2,1),(
    -2.094395102393,0.,2.094395102393,4.188790204786,6.28318530718,
8.377580409573),.UNSPECIFIED.) CURVE() GEOMETRIC_REPRESENTATION_ITEM() 
RATIONAL_B_SPLINE_CURVE((1.,0.5,1.,0.5,1.,0.5,1.)) REPRESENTATION_ITEM(
  '') );
#755 = CARTESIAN_POINT('',(1.076900577951,-3.122292025696E-03,
    6.361879502662));
#756 = CARTESIAN_POINT('',(0.124272633789,1.646877707974,6.361879502662)
  );
#757 = CARTESIAN_POINT('',(-0.409827913028,0.238514613495,5.195153313704
    ));
#758 = CARTESIAN_POINT('',(-0.943928459845,-1.169848480983,
    4.028427124746));
#759 = CARTESIAN_POINT('',(0.542800031135,-1.411485386505,5.195153313704
    ));
#760 = CARTESIAN_POINT('',(2.029528522114,-1.653122292026,6.361879502662
    ));
#761 = CARTESIAN_POINT('',(1.076900577951,-3.122292025696E-03,
    6.361879502662));
#762 = ORIENTED_EDGE('',*,*,#134,.F.);
#763 = B_SPLINE_SURFACE_WITH_KNOTS('',1,1,(
    (#764,#765)
    ,(#766,#767
    )),.UNSPECIFIED.,.F.,.F.,.F.,(2,2),(2,2),(-4.,4.),(-4.,4.),
  .PIECEWISE_BEZIER_KNOTS.);
#764 = CARTESIAN_POINT('',(-4.619884409711E-02,-5.270346199189,
    2.75563491861));
#765 = CARTESIAN_POINT('',(-4.046198844097,1.657857031086,2.75563491861)
  );
#766 = CARTESIAN_POINT('',(4.852780641469,-2.441919074443,8.412489168103
    ));
#767 = CARTESIAN_POINT('',(0.852780641469,4.486284155833,8.412489168103)
  );
#768 = ADVANCED_FACE('',(#769),#778,.F.);
#769 = FACE_BOUND('',#770,.F.);
#770 = EDGE_LOOP('',(#771,#772,#777));
#771 = ORIENTED_EDGE('',*,*,#741,.F.);
#772 = ORIENTED_EDGE('',*,*,#773,.F.);
#773 = EDGE_CURVE('',#254,#742,#774,.T.);
#774 = B_SPLINE_CURVE_WITH_KNOTS('',1,(#775,#776),.UNSPECIFIED.,.F.,.F.,
  (2,2),(1.,7.2),.PIECEWISE_BEZIER_KNOTS.);
#775 = CARTESIAN_POINT('',(4.873609679265,2.188908729653,1.977817459305)
  );
#776 = CARTESIAN_POINT('',(1.076900577951,-3.122292025697E-03,
    6.361879502662));
#777 = ORIENTED_EDGE('',*,*,#414,.F.);
#778 = ( BOUNDED_SURFACE() B_SPLINE_SURFACE(2,1,(
    (#779,#780)
    ,(#781,#782)
    ,(#783,#784)
    ,(#785,#786)
    ,(#787,#788)
    ,(#789,#790)
,(#791,#792
    )),.UNSPECIFIED.,.T.,.F.,.F.) B_SPLINE_SURFACE_WITH_KNOTS((1,2,2,2,2
    ,1),(2,2),(-2.094395102393,0.,2.094395102393,4.188790204786,
    6.28318530718,8.377580409573),(1.,7.2),.UNSPECIFIED.) 
GEOMETRIC_REPRESENTATION_ITEM() RATIONAL_B_SPLINE_SURFACE((
    (1.,1.)
    ,(0.5,0.5)
    ,(1.,1.)
    ,(0.5,0.5)
    ,(1.,1.)
    ,(0.5,0.5)
,(1.,1.))) REPRESENTATION_ITEM('') SURFACE() );
#779 = CARTESIAN_POINT('',(4.873609679265,2.188908729653,1.977817459305)
  );
#780 = CARTESIAN_POINT('',(1.076900577951,-3.122292025696E-03,
    6.361879502662));
#781 = CARTESIAN_POINT('',(3.920981735102,3.838908729653,1.977817459305)
  );
#782 = CARTESIAN_POINT('',(0.124272633789,1.646877707974,6.361879502662)
  );
#783 = CARTESIAN_POINT('',(3.386881188286,2.430545635174,0.811091270347)
  );
#784 = CARTESIAN_POINT('',(-0.409827913028,0.238514613495,5.195153313704
    ));
#785 = CARTESIAN_POINT('',(2.852780641469,1.022182540695,-0.35563491861)
  );
#786 = CARTESIAN_POINT('',(-0.943928459845,-1.169848480983,
    4.028427124746));
#787 = CARTESIAN_POINT('',(4.339509132449,0.780545635174,0.811091270347)
  );
#788 = CARTESIAN_POINT('',(0.542800031135,-1.411485386505,5.195153313704
    ));
#789 = CARTESIAN_POINT('',(5.826237623428,0.538908729653,1.977817459305)
  );
#790 = CARTESIAN_POINT('',(2.029528522114,-1.653122292026,6.361879502662
    ));
#791 = CARTESIAN_POINT('',(4.873609679265,2.188908729653,1.977817459305)
  );
#792 = CARTESIAN_POINT('',(1.076900577951,-3.122292025696E-03,
    6.361879502662));
#793 = ADVANCED_FACE('',(#794),#799,.F.);
#794 = FACE_BOUND('',#795,.F.);
#795 = EDGE_LOOP('',(#796,#797,#798));
#796 = ORIENTED_EDGE('',*,*,#773,.T.);
#797 = ORIENTED_EDGE('',*,*,#753,.F.);
#798 = ORIENTED_EDGE('',*,*,#253,.F.);
#799 = ( BOUNDED_SURFACE() B_SPLINE_SURFACE(2,1,(
    (#800,#801)
    ,(#802,#803)
    ,(#804,#805)
    ,(#806,#807)
    ,(#808,#809)
    ,(#810,#811)
,(#812,#813
    )),.UNSPECIFIED.,.T.,.F.,.F.) B_SPLINE_SURFACE_WITH_KNOTS((1,2,2,2,2
    ,1),(2,2),(-2.094395102393,0.,2.094395102393,4.188790204786,
    6.28318530718,8.377580409573),(1.,7.2),.UNSPECIFIED.) 
GEOMETRIC_REPRESENTATION_ITEM() RATIONAL_B_SPLINE_SURFACE((
    (1.,1.)
    ,(0.5,0.5)
    ,(1.,1.)
    ,(0.5,0.5)
    ,(1.,1.)
    ,(0.5,0.5)
,(1.,1.))) REPRESENTATION_ITEM('') SURFACE() );
#800 = CARTESIAN_POINT('',(4.873609679265,2.188908729653,1.977817459305)
  );
#801 = CARTESIAN_POINT('',(1.076900577951,-3.122292025696E-03,
    6.361879502662));
#802 = CARTESIAN_POINT('',(3.920981735102,3.838908729653,1.977817459305)
  );
#803 = CARTESIAN_POINT('',(0.124272633789,1.646877707974,6.361879502662)
  );
#804 = CARTESIAN_POINT('',(3.386881188286,2.430545635174,0.811091270347)
  );
#805 = CARTESIAN_POINT('',(-0.409827913028,0.238514613495,5.195153313704
    ));
#806 = CARTESIAN_POINT('',(2.852780641469,1.022182540695,-0.35563491861)
  );
#807 = CARTESIAN_POINT('',(-0.943928459845,-1.169848480983,
    4.028427124746));
#808 = CARTESIAN_POINT('',(4.339509132449,0.780545635174,0.811091270347)
  );
#809 = CARTESIAN_POINT('',(0.542800031135,-1.411485386505,5.195153313704
    ));
#810 = CARTESIAN_POINT('',(5.826237623428,0.538908729653,1.977817459305)
  );
#811 = CARTESIAN_POINT('',(2.029528522114,-1.653122292026,6.361879502662
    ));
#812 = CARTESIAN_POINT('',(4.873609679265,2.188908729653,1.977817459305)
  );
#813 = CARTESIAN_POINT('',(1.076900577951,-3.122292025696E-03,
    6.361879502662));
#814 = ADVANCED_FACE('',(#815),#821,.T.);
#815 = FACE_BOUND('',#816,.T.);
#816 = EDGE_LOOP('',(#817,#818,#819,#820));
#817 = ORIENTED_EDGE('',*,*,#704,.T.);
#818 = ORIENTED_EDGE('',*,*,#729,.F.);
#819 = ORIENTED_EDGE('',*,*,#87,.F.);
#820 = ORIENTED_EDGE('',*,*,#660,.T.);
#821 = ( BOUNDED_SURFACE() B_SPLINE_SURFACE(2,1,(
    (#822,#823)
    ,(#824,#825)
    ,(#826,#827)
    ,(#828,#829)
    ,(#830,#831)
    ,(#832,#833)
,(#834,#835
    )),.UNSPECIFIED.,.T.,.F.,.F.) B_SPLINE_SURFACE_WITH_KNOTS((1,2,2,2,2
    ,1),(2,2),(-2.094395102393,0.,2.094395102393,4.188790204786,
    6.28318530718,8.377580409573),(0.,6.356099432828),.UNSPECIFIED.) 
GEOMETRIC_REPRESENTATION_ITEM() RATIONAL_B_SPLINE_SURFACE((
    (1.,1.)
    ,(0.5,0.5)
    ,(1.,1.)
    ,(0.5,0.5)
    ,(1.,1.)
    ,(0.5,0.5)
,(1.,1.))) REPRESENTATION_ITEM('') SURFACE() );
#822 = CARTESIAN_POINT('',(7.506811152757,3.709188309204,5.018376618407)
  );
#823 = CARTESIAN_POINT('',(2.852780641469,1.022182540695,8.412489168103)
  );
#824 = CARTESIAN_POINT('',(2.830273972321,11.809188309204,5.018376618407
    ));
#825 = CARTESIAN_POINT('',(-0.611320973669,7.022182540695,8.412489168103
    ));
#826 = CARTESIAN_POINT('',(0.208325833403,4.895405845398,-0.709188309204
    ));
#827 = CARTESIAN_POINT('',(-2.553504780274,1.900862197135,4.169848480984
    ));
#828 = CARTESIAN_POINT('',(-2.413622305515,-2.018376618407,
    -6.436753236815));
#829 = CARTESIAN_POINT('',(-4.49568858688,-3.220458146424,
    -7.279220613578E-02));
#830 = CARTESIAN_POINT('',(4.884863013839,-3.204594154602,
    -0.709188309204));
#831 = CARTESIAN_POINT('',(0.910596834863,-4.099137802865,4.169848480983
    ));
#832 = CARTESIAN_POINT('',(12.183348333193,-4.390811690796,
    5.018376618407));
#833 = CARTESIAN_POINT('',(6.316882256607,-4.977817459305,8.412489168103
    ));
#834 = CARTESIAN_POINT('',(7.506811152757,3.709188309204,5.018376618407)
  );
#835 = CARTESIAN_POINT('',(2.852780641469,1.022182540695,8.412489168103)
  );
#836 = ( GEOMETRIC_REPRESENTATION_CONTEXT(3) 
GLOBAL_UNCERTAINTY_ASSIGNED_CONTEXT((#840)) GLOBAL_UNIT_ASSIGNED_CONTEXT
((#837,#838,#839)) REPRESENTATION_CONTEXT('Context #1',
  '3D Context with UNIT and UNCERTAINTY') );
#837 = ( LENGTH_UNIT() NAMED_UNIT(*) SI_UNIT(.MILLI.,.METRE.) );
#838 = ( NAMED_UNIT(*) PLANE_ANGLE_UNIT() SI_UNIT($,.RADIAN.) );
#839 = ( NAMED_UNIT(*) SI_UNIT($,.STERADIAN.) SOLID_ANGLE_UNIT() );
#840 = UNCERTAINTY_MEASURE_WITH_UNIT(LENGTH_MEASURE(2.E-06),#837,
  'distance_accuracy_value','confusion accuracy');
#841 = PRODUCT_RELATED_PRODUCT_CATEGORY('part',$,(#7));
ENDSEC;
END-ISO-10303-21;
